<?xml version="1.0" encoding="UTF-8"?>
<!-- Generator: visioncortex VTracer 0.6.4 -->
<svg version="1.1" xmlns="http://www.w3.org/2000/svg" width="512" height="512">
<path d="M0 0 C168.96 0 337.92 0 512 0 C512 168.96 512 337.92 512 512 C343.04 512 174.08 512 0 512 C0 343.04 0 174.08 0 0 Z " fill="#7AB6FB" transform="translate(0,0)"/>
<path d="M0 0 C2.55 0.25 4.86 0.32 7.41 0.19 C13.78 0.4 20.06 1.99 25.96 4.42 C28.34 5.5 28.34 5.5 31.29 5.32 C32.28 5.98 33.27 6.64 34.29 7.32 C35.95 7.66 37.62 7.99 39.29 8.32 C41.54 9.13 41.54 9.13 43.29 10.32 C44.04 12.44 44.04 12.44 44.29 14.32 C46.6 14.32 48.91 14.32 51.29 14.32 C51.53 15.1 51.78 15.88 52.04 16.69 C53.51 19.8 54.29 19.91 57.29 21.32 C62.39 24.93 65.58 28.69 68.29 34.32 C68.29 34.98 68.29 35.64 68.29 36.32 C68.95 36.32 69.61 36.32 70.29 36.32 C73.5 38.75 74.23 40.04 75.04 44.07 C75.12 45.14 75.2 46.21 75.29 47.32 C76.28 47.32 77.27 47.32 78.29 47.32 C80.62 54.46 80.59 61.49 80.55 68.93 C80.54 71.05 80.55 73.16 80.56 75.28 C80.57 83.45 79.96 91.29 78.29 99.32 C81.75 98.82 81.75 98.82 85.29 98.32 C85.29 98.98 85.29 99.64 85.29 100.32 C85.95 100.32 86.61 100.32 87.29 100.32 C87.65 115.25 87.46 133.29 77.29 145.32 C74.05 147.73 71.27 148.75 67.29 149.32 C67.04 150.29 66.79 151.26 66.54 152.25 C65.46 156 63.98 159.47 62.34 163 C61.66 164.49 61.02 165.99 60.42 167.5 C58.11 173.21 54.91 177.85 51.19 182.74 C49.24 185.29 49.24 185.29 47.66 188.08 C46.29 190.32 46.29 190.32 44.29 191.32 C43.26 205.78 43.26 205.78 47.29 219.32 C49.25 220.44 49.25 220.44 51.29 221.32 C51.9 222.12 52.52 222.93 53.16 223.75 C55.59 226.68 57.83 227.82 61.29 229.32 C61.29 229.98 61.29 230.64 61.29 231.32 C63.27 231.65 65.25 231.98 67.29 232.32 C67.29 232.98 67.29 233.64 67.29 234.32 C68.59 234.74 68.59 234.74 69.92 235.16 C73.05 236.24 76.06 237.45 79.1 238.75 C82.67 240.27 86.21 241.66 89.91 242.82 C94.98 244.44 99.58 246.86 104.29 249.32 C105.83 250.09 107.37 250.86 108.91 251.63 C110.02 252.19 111.14 252.74 112.29 253.32 C112.29 253.98 112.29 254.64 112.29 255.32 C113.17 255.41 114.06 255.51 114.97 255.61 C118.57 256.38 120.43 257.5 123.35 259.69 C126.58 262.09 129.81 264.28 133.29 266.32 C135.6 267.88 135.6 267.88 137.29 269.32 C137.29 269.98 137.29 270.64 137.29 271.32 C137.95 271.32 138.61 271.32 139.29 271.32 C139.29 272.31 139.29 273.3 139.29 274.32 C139.95 274.32 140.61 274.32 141.29 274.32 C141.29 275.97 141.29 277.62 141.29 279.32 C142.28 279.65 143.27 279.98 144.29 280.32 C146.04 283.09 146.75 285.87 147.41 289.07 C147.58 289.87 147.75 290.66 147.92 291.49 C148.04 292.09 148.16 292.69 148.29 293.32 C148.95 293.32 149.61 293.32 150.29 293.32 C150.62 295.63 150.95 297.94 151.29 300.32 C152.28 300.32 153.27 300.32 154.29 300.32 C155.43 303.87 155.37 305.12 153.85 308.63 C153.33 309.52 152.82 310.4 152.29 311.32 C153.28 311.32 154.27 311.32 155.29 311.32 C154.67 316.33 154.01 321.32 153.29 326.32 C152.11 326.75 152.11 326.75 150.91 327.19 C148.19 328.17 148.19 328.17 146.29 330.32 C144.44 330.88 144.44 330.88 142.22 331.32 C141.41 331.48 140.6 331.65 139.77 331.82 C138.95 331.98 138.13 332.15 137.29 332.32 C135.13 332.78 132.98 333.27 130.83 333.75 C128.85 334.19 126.85 334.62 124.86 335.04 C123.09 335.42 123.09 335.42 121.29 335.82 C120.17 336.05 119.06 336.29 117.91 336.54 C117.04 336.79 116.18 337.05 115.29 337.32 C114.96 337.98 114.63 338.64 114.29 339.32 C112.97 338.66 111.65 338 110.29 337.32 C110.29 337.98 110.29 338.64 110.29 339.32 C109.3 339.65 108.31 339.98 107.29 340.32 C107.29 339.66 107.29 339 107.29 338.32 C106.23 338.6 105.17 338.89 104.08 339.18 C98.3 340.63 92.42 341.52 86.54 342.44 C84.85 342.71 84.85 342.71 83.13 342.99 C78.78 343.68 74.7 344.32 70.29 344.32 C70.29 344.98 70.29 345.64 70.29 346.32 C69.34 346.3 69.34 346.3 68.37 346.28 C60.65 346.21 53.04 346.69 45.35 347.25 C10.71 349.64 -23.57 349.73 -58.17 346.54 C-62.88 346.13 -67.59 345.84 -72.3 345.56 C-74.71 345.32 -74.71 345.32 -76.71 344.32 C-78.24 344.12 -79.77 343.97 -81.3 343.85 C-82.69 343.74 -82.69 343.74 -84.11 343.62 C-85.09 343.54 -86.08 343.46 -87.09 343.38 C-95.05 342.7 -102.86 341.81 -110.71 340.32 C-114.69 339.58 -114.69 339.58 -118.71 339.32 C-118.71 338.66 -118.71 338 -118.71 337.32 C-119.75 337.4 -120.78 337.48 -121.84 337.57 C-127.29 337.6 -132.18 335.85 -137.35 334.27 C-141.18 333.18 -144.75 332.63 -148.71 332.32 C-148.71 331.66 -148.71 331 -148.71 330.32 C-150.69 330.32 -152.67 330.32 -154.71 330.32 C-154.71 329.66 -154.71 329 -154.71 328.32 C-156.69 327.66 -158.67 327 -160.71 326.32 C-160.58 323.21 -160.43 320.11 -160.28 317 C-160.24 316.12 -160.2 315.24 -160.16 314.33 C-160.12 313.49 -160.07 312.64 -160.03 311.77 C-159.99 310.99 -159.96 310.21 -159.92 309.4 C-159.71 307.32 -159.71 307.32 -158.71 304.32 C-158.05 304.32 -157.39 304.32 -156.71 304.32 C-156.63 303.41 -156.55 302.5 -156.46 301.57 C-155 291.85 -151.5 284.28 -145.42 276.59 C-143.55 274.34 -143.55 274.34 -142.71 271.32 C-141.72 271.32 -140.73 271.32 -139.71 271.32 C-139.71 270.66 -139.71 270 -139.71 269.32 C-139.05 269.32 -138.39 269.32 -137.71 269.32 C-137.71 268.66 -137.71 268 -137.71 267.32 C-136.39 267.32 -135.07 267.32 -133.71 267.32 C-133.71 266.66 -133.71 266 -133.71 265.32 C-133.05 265.06 -132.39 264.81 -131.7 264.55 C-126.12 262.38 -126.12 262.38 -120.84 259.57 C-118.71 258.32 -118.71 258.32 -114.71 258.32 C-114.71 257.66 -114.71 257 -114.71 256.32 C-114.12 256.06 -113.53 255.81 -112.92 255.55 C-107.94 253.39 -107.94 253.39 -103.21 250.75 C-100.98 249.47 -99.15 248.76 -96.71 248 C-92.71 246.75 -89.05 245.09 -85.28 243.25 C-79.81 240.66 -74.7 239.1 -68.71 238.32 C-68.38 237.33 -68.05 236.34 -67.71 235.32 C-65.4 234.29 -63.06 233.29 -60.71 232.32 C-58.96 230.73 -58.96 230.73 -57.71 229.32 C-57.05 229.32 -56.39 229.32 -55.71 229.32 C-55.38 228.33 -55.05 227.34 -54.71 226.32 C-54.05 226.32 -53.39 226.32 -52.71 226.32 C-52.45 225.64 -52.18 224.96 -51.91 224.25 C-50.06 219.69 -48.04 215.2 -46.05 210.69 C-44.12 205.81 -43.51 201.42 -43.34 196.19 C-43.27 194.64 -43.27 194.64 -43.19 193.06 C-43.43 190.09 -43.43 190.09 -46.19 188.59 C-47.02 188.17 -47.86 187.75 -48.71 187.32 C-49.53 185.13 -49.53 185.13 -49.71 183.32 C-50.37 183.32 -51.03 183.32 -51.71 183.32 C-52.03 182.66 -52.34 182.01 -52.67 181.34 C-55.53 175.45 -55.53 175.45 -59.03 169.94 C-60.71 167.32 -60.71 167.32 -60.71 163.32 C-61.37 163.32 -62.03 163.32 -62.71 163.32 C-62.93 162.4 -63.15 161.49 -63.38 160.54 C-63.7 159.35 -64.01 158.17 -64.34 156.94 C-64.64 155.76 -64.94 154.57 -65.25 153.36 C-66.44 150.05 -66.44 150.05 -69.74 148.96 C-70.72 148.75 -71.7 148.54 -72.71 148.32 C-73.37 147.99 -74.03 147.66 -74.71 147.32 C-74.71 146.66 -74.71 146 -74.71 145.32 C-75.37 145.32 -76.03 145.32 -76.71 145.32 C-83.96 133.4 -86.78 117.16 -84.71 103.32 C-82.88 100.86 -82.88 100.86 -80.71 99.32 C-79.72 99.32 -78.73 99.32 -77.71 99.32 C-77.93 98.25 -77.93 98.25 -78.14 97.16 C-79.58 89.37 -80.05 81.86 -80.03 73.94 C-80.04 72.81 -80.06 71.67 -80.08 70.5 C-80.08 64.62 -79.93 60.43 -76.71 55.32 C-76.37 53.32 -76.03 51.32 -75.71 49.32 C-74.72 48.33 -74.72 48.33 -73.71 47.32 C-73.38 46.49 -73.05 45.67 -72.71 44.82 C-71.71 42.32 -71.71 42.32 -69.71 40.32 C-69.1 39.18 -68.48 38.05 -67.84 36.88 C-66.52 34.47 -65.78 33.36 -63.53 31.69 C-61.44 30.43 -61.44 30.43 -61.28 27.82 C-60.71 25.32 -60.71 25.32 -58.28 23.5 C-55.71 22.32 -55.71 22.32 -53.71 22.32 C-52.02 20.67 -50.36 19 -48.71 17.32 C-43.46 12.32 -43.46 12.32 -38.71 12.32 C-38.71 11.66 -38.71 11 -38.71 10.32 C-33.63 6.89 -29.98 5.85 -23.85 5.69 C-23.15 5.57 -22.44 5.44 -21.71 5.32 C-21.05 4.33 -20.39 3.34 -19.71 2.32 C-13.45 -1.37 -6.97 -0.71 0 0 Z " fill="#4485F4" transform="translate(260.71484375,88.68359375)"/>
<path d="M0 0 C168.96 0 337.92 0 512 0 C512 48.51 512 97.02 512 147 C511.67 147 511.34 147 511 147 C510.51 143.29 510.04 139.58 509.56 135.88 C509.42 134.76 509.28 133.65 509.13 132.51 C508.45 127.06 507.87 121.68 507.69 116.19 C506.08 90.48 497.17 65.32 480 46 C480 45.34 480 44.68 480 44 C479.13 43.66 479.13 43.66 478.25 43.31 C475.4 41.65 473.88 39.68 472 37 C472 36.34 472 35.68 472 35 C471.38 34.69 470.76 34.38 470.12 34.06 C468.75 33.38 467.38 32.69 466 32 C466 31.34 466 30.68 466 30 C465.45 29.73 464.89 29.47 464.32 29.19 C461.77 27.88 459.33 26.43 456.88 24.94 C453.49 22.87 453.49 22.87 450 21 C450 20.34 450 19.68 450 19 C449.32 18.88 448.64 18.75 447.94 18.62 C445.86 18.18 443.79 17.65 441.75 17.06 C438.98 16.28 436.31 15.64 433.5 15.06 C430.57 14.44 428.02 13.65 425.31 12.38 C422.16 10.82 422.16 10.82 419.12 11 C412.91 11 407.1 8.46 402 5 C401.67 5.99 401.34 6.98 401 8 C401 7.34 401 6.68 401 6 C399.85 6.19 398.69 6.37 397.5 6.56 C392.79 7.1 388.22 6.92 383.5 6.62 C382.78 6.58 382.06 6.54 381.32 6.49 C376.13 6.13 376.13 6.13 375 5 C367.27 3.68 359.53 4.04 351.75 4.44 C338.79 5.07 325.85 5.13 312.88 5.12 C311.81 5.13 310.75 5.13 309.65 5.13 C295.08 5.12 280.53 4.92 265.97 4.27 C264.84 4.22 263.71 4.17 262.55 4.12 C261.59 4.07 260.63 4.03 259.64 3.98 C256.99 3.91 256.99 3.91 254.4 4.55 C251.8 5.04 250.52 4.7 248 4 C246.12 3.92 244.24 3.89 242.36 3.9 C240.75 3.91 240.75 3.91 239.12 3.91 C238.01 3.92 236.89 3.93 235.75 3.94 C234.62 3.94 233.5 3.95 232.34 3.95 C229.56 3.96 226.78 3.98 224 4 C224 4.66 224 5.32 224 6 C221.36 6 218.72 6 216 6 C216.33 5.01 216.66 4.02 217 3 C218.98 3 220.96 3 223 3 C223 2.34 223 1.68 223 1 C222.01 1.17 221.02 1.33 220 1.5 C215.97 2.08 212.07 2.07 208 2 C208 2.66 208 3.32 208 4 C204.17 4.2 200.33 4.38 196.5 4.56 C194.88 4.65 194.88 4.65 193.23 4.73 C192.18 4.78 191.12 4.83 190.03 4.88 C188.59 4.95 188.59 4.95 187.11 5.02 C184.07 5 181.16 4.63 178.15 4.22 C174.3 3.82 170.47 3.95 166.61 4.05 C165.31 4.08 165.31 4.08 163.98 4.11 C162.16 4.15 160.34 4.19 158.53 4.24 C155.74 4.31 152.96 4.37 150.18 4.42 C148.41 4.46 146.63 4.51 144.86 4.55 C143.62 4.57 143.62 4.57 142.35 4.6 C138.37 4.71 135.48 4.88 132 7 C130.66 6.72 129.32 6.37 128 6 C125.26 5.9 122.55 5.86 119.81 5.88 C118.67 5.88 118.67 5.88 117.5 5.88 C112.26 5.93 107.19 6.23 102 7 C100.84 7.14 99.69 7.29 98.5 7.44 C97.26 7.72 97.26 7.72 96 8 C95.67 8.66 95.34 9.32 95 10 C92.67 10.35 90.34 10.68 88 11 C86.66 11.64 85.32 12.31 84 13 C82.18 13.71 80.34 14.4 78.5 15.06 C77.56 15.4 76.62 15.75 75.66 16.1 C73 17 73 17 70.8 17.48 C68.7 17.93 68.7 17.93 66.75 20.31 C63.88 23.12 61.43 24.37 57.85 26.03 C55.44 27.29 53.85 29.02 52 31 C51.17 31.47 50.35 31.95 49.5 32.44 C46.58 34.26 45.15 36.3 43 39 C41.01 40.84 38.97 42.6 36.9 44.35 C34.33 46.55 34.33 46.55 32 49 C32 49.99 32 50.98 32 52 C30.53 53.28 29.06 54.55 27.51 55.72 C25.73 57.11 25.73 57.11 24 60 C23.88 61.95 23.88 61.95 23.75 63.94 C23.39 67.66 23.16 67.86 20.06 70.5 C17 72 17 72 15 72 C14.71 72.88 14.42 73.75 14.12 74.66 C13.44 76.68 12.75 78.7 12.04 80.72 C3.05 106.4 2.85 133.44 2.87 160.33 C2.87 162.75 2.87 165.17 2.87 167.59 C2.86 173.44 2.86 179.29 2.86 185.15 C2.87 189.91 2.87 194.67 2.87 199.44 C2.87 200.12 2.87 200.8 2.87 201.5 C2.87 202.89 2.87 204.27 2.86 205.66 C2.86 218.6 2.87 231.55 2.87 244.49 C2.88 255.57 2.87 266.64 2.87 277.71 C2.86 290.62 2.86 303.52 2.87 316.43 C2.87 317.8 2.87 319.18 2.87 320.56 C2.87 321.24 2.87 321.92 2.87 322.62 C2.87 327.37 2.87 332.12 2.86 336.87 C2.86 343.28 2.86 349.69 2.87 356.1 C2.87 358.44 2.87 360.78 2.87 363.12 C2.79 387.1 2.79 387.1 5.62 410.88 C5.88 412.26 5.88 412.26 6.13 413.67 C7.96 422.93 11.23 431.38 15 440 C15.37 440.91 15.75 441.82 16.13 442.76 C24.59 463.06 40.7 481.44 60 492 C60.56 492.32 61.13 492.64 61.71 492.96 C80.66 503.56 100.65 507.19 122 510 C122 510.66 122 511.32 122 512 C81.74 512 41.48 512 0 512 C0 343.04 0 174.08 0 0 Z " fill="#FCFDFD" transform="translate(0,0)"/>
<path d="M0 0 C130.02 0 260.04 0 394 0 C394 48.51 394 97.02 394 147 C393.67 147 393.34 147 393 147 C392.51 143.29 392.04 139.58 391.56 135.88 C391.42 134.76 391.28 133.65 391.13 132.51 C390.45 127.06 389.87 121.68 389.69 116.19 C388.08 90.48 379.17 65.32 362 46 C362 45.34 362 44.68 362 44 C361.13 43.66 361.13 43.66 360.25 43.31 C357.4 41.65 355.88 39.68 354 37 C354 36.34 354 35.68 354 35 C353.38 34.69 352.76 34.38 352.12 34.06 C350.75 33.38 349.38 32.69 348 32 C348 31.34 348 30.68 348 30 C347.45 29.73 346.89 29.47 346.32 29.19 C343.77 27.88 341.33 26.43 338.88 24.94 C335.49 22.87 335.49 22.87 332 21 C332 20.34 332 19.68 332 19 C331.32 18.88 330.64 18.75 329.94 18.62 C327.86 18.18 325.79 17.65 323.75 17.06 C320.98 16.28 318.31 15.64 315.5 15.06 C312.57 14.44 310.02 13.65 307.31 12.38 C304.16 10.82 304.16 10.82 301.12 11 C294.91 11 289.1 8.46 284 5 C283.67 5.99 283.34 6.98 283 8 C283 7.34 283 6.68 283 6 C281.85 6.19 280.69 6.37 279.5 6.56 C274.79 7.1 270.22 6.92 265.5 6.62 C264.78 6.58 264.06 6.54 263.32 6.49 C258.13 6.13 258.13 6.13 257 5 C249.27 3.68 241.53 4.04 233.75 4.44 C220.79 5.07 207.85 5.13 194.88 5.12 C193.81 5.13 192.75 5.13 191.65 5.13 C177.08 5.12 162.53 4.92 147.97 4.27 C146.28 4.2 146.28 4.2 144.55 4.12 C143.59 4.07 142.63 4.03 141.64 3.98 C138.99 3.91 138.99 3.91 136.4 4.55 C133.8 5.04 132.52 4.7 130 4 C128.12 3.92 126.24 3.89 124.36 3.9 C122.75 3.91 122.75 3.91 121.12 3.91 C120.01 3.92 118.89 3.93 117.75 3.94 C116.62 3.94 115.5 3.95 114.34 3.95 C111.56 3.96 108.78 3.98 106 4 C106 4.66 106 5.32 106 6 C103.36 6 100.72 6 98 6 C98.33 5.01 98.66 4.02 99 3 C100.98 3 102.96 3 105 3 C105 2.34 105 1.68 105 1 C104.01 1.17 103.02 1.33 102 1.5 C97.97 2.08 94.07 2.07 90 2 C90 2.66 90 3.32 90 4 C86.17 4.2 82.33 4.38 78.5 4.56 C76.88 4.65 76.88 4.65 75.23 4.73 C74.18 4.78 73.12 4.83 72.03 4.88 C70.59 4.95 70.59 4.95 69.11 5.02 C66.07 5 63.16 4.63 60.15 4.22 C56.3 3.82 52.47 3.95 48.61 4.05 C47.31 4.08 47.31 4.08 45.98 4.11 C44.16 4.15 42.34 4.19 40.53 4.24 C37.74 4.31 34.96 4.37 32.18 4.42 C30.41 4.46 28.63 4.51 26.86 4.55 C25.62 4.57 25.62 4.57 24.35 4.6 C20.37 4.71 17.48 4.88 14 7 C12.66 6.72 11.32 6.37 10 6 C7.26 5.9 4.55 5.86 1.81 5.88 C0.67 5.88 0.67 5.88 -0.5 5.88 C-5.74 5.93 -10.81 6.23 -16 7 C-17.16 7.14 -18.31 7.29 -19.5 7.44 C-20.74 7.72 -20.74 7.72 -22 8 C-22.33 8.66 -22.66 9.32 -23 10 C-25.33 10.35 -27.66 10.68 -30 11 C-31.34 11.64 -32.68 12.31 -34 13 C-35.82 13.71 -37.66 14.4 -39.5 15.06 C-40.91 15.57 -40.91 15.57 -42.34 16.1 C-45 17 -45 17 -47.2 17.48 C-49.3 17.93 -49.3 17.93 -51.25 20.31 C-54.12 23.12 -56.57 24.37 -60.15 26.03 C-62.56 27.29 -64.15 29.02 -66 31 C-66.83 31.47 -67.65 31.95 -68.5 32.44 C-71.42 34.26 -72.85 36.3 -75 39 C-76.99 40.84 -79.03 42.6 -81.1 44.35 C-83.67 46.55 -83.67 46.55 -86 49 C-86 49.99 -86 50.98 -86 52 C-87.47 53.28 -88.94 54.55 -90.49 55.72 C-92.27 57.11 -92.27 57.11 -94 60 C-94.08 61.3 -94.16 62.6 -94.25 63.94 C-94.45 66.06 -94.45 66.06 -95 68 C-98.06 70.5 -98.06 70.5 -101 72 C-102 69 -102 69 -101.32 66.98 C-98.64 61.71 -95.64 56.76 -92.31 51.88 C-91.92 51.29 -91.53 50.71 -91.12 50.12 C-90.14 48.7 -89.07 47.35 -88 46 C-87.34 46 -86.68 46 -86 46 C-86 45.34 -86 44.68 -86 44 C-85.34 44 -84.68 44 -84 44 C-83.77 43.46 -83.55 42.93 -83.31 42.38 C-80.15 36.64 -76.43 33.51 -71 30 C-70.28 29.23 -69.55 28.46 -68.8 27.67 C-65.51 24.53 -62.1 22.53 -58.12 20.38 C-57.44 19.99 -56.76 19.61 -56.06 19.22 C-51.8 16.87 -47.5 14.84 -43 13 C-41.39 12.33 -41.39 12.33 -39.75 11.65 C-33.77 9.26 -28.45 7.38 -22 7 C-22 6.34 -22 5.68 -22 5 C-7.4 1.56 -7.4 1.56 0 2 C0 1.34 0 0.68 0 0 Z " fill="#FCFDFD" transform="translate(118,0)"/>
<path d="M0 0 C0.66 0 1.32 0 2 0 C2.08 5.37 2.13 10.73 2.16 16.1 C2.18 17.92 2.2 19.74 2.23 21.55 C2.45 37.15 1.1 52.07 -3.25 67.12 C-3.57 68.23 -3.57 68.23 -3.89 69.35 C-9.74 88.96 -19.92 107.02 -35 121 C-36.49 121.5 -36.49 121.5 -38 122 C-38.33 122.99 -38.66 123.98 -39 125 C-59.29 144.17 -87.19 150.79 -113.89 154.61 C-116.05 154.91 -116.05 154.91 -118 156 C-119.47 156.09 -120.95 156.12 -122.43 156.12 C-123.37 156.13 -124.31 156.13 -125.27 156.13 C-126.31 156.13 -127.35 156.12 -128.41 156.12 C-130.06 156.12 -130.06 156.12 -131.74 156.12 C-135.43 156.12 -139.13 156.12 -142.83 156.11 C-145.47 156.11 -148.11 156.11 -150.75 156.11 C-156.45 156.11 -162.15 156.11 -167.84 156.11 C-176.08 156.1 -184.32 156.09 -192.56 156.09 C-205.92 156.09 -219.29 156.08 -232.65 156.08 C-245.64 156.07 -258.62 156.06 -271.61 156.05 C-272.81 156.05 -272.81 156.05 -274.03 156.05 C-278.05 156.05 -282.06 156.05 -286.07 156.05 C-319.38 156.04 -352.69 156.02 -386 156 C-386 155.34 -386 154.68 -386 154 C-386.86 153.97 -387.72 153.95 -388.61 153.92 C-409.8 152.94 -429.41 147.24 -448 137 C-448.85 136.55 -449.71 136.1 -450.59 135.63 C-474.34 121.9 -488.49 98.91 -498 74 C-498.32 73.2 -498.64 72.4 -498.97 71.58 C-502.2 63.47 -503.33 55.75 -503.25 47.06 C-503.26 46.21 -503.27 45.36 -503.27 44.49 C-503.27 43.68 -503.27 42.87 -503.27 42.04 C-503.26 41.31 -503.26 40.58 -503.26 39.83 C-503 38 -503 38 -501 36 C-500.94 36.66 -500.88 37.33 -500.82 38.01 C-500.73 38.89 -500.65 39.78 -500.56 40.69 C-500.44 41.99 -500.44 41.99 -500.32 43.32 C-500.01 45.93 -499.54 48.44 -499 51 C-498.85 51.81 -498.69 52.63 -498.54 53.46 C-497.06 61.78 -497.06 61.78 -493.44 69.31 C-491.7 72.57 -491.47 75.27 -491.21 78.91 C-491.06 81.19 -491.06 81.19 -490 84 C-488.02 84.33 -486.04 84.66 -484 85 C-484 87.31 -484 89.62 -484 92 C-482.35 92 -480.7 92 -479 92 C-479.33 93.98 -479.66 95.96 -480 98 C-479.01 98 -478.02 98 -477 98 C-476 104.62 -476 104.62 -476 108 C-475.34 108 -474.68 108 -474 108 C-474 108.66 -474 109.32 -474 110 C-472.68 110 -471.36 110 -470 110 C-469.34 109.34 -468.68 108.68 -468 108 C-468 108.66 -468 109.32 -468 110 C-467.34 110 -466.68 110 -466 110 C-465.67 110.66 -465.34 111.32 -465 112 C-462.52 111.5 -462.52 111.5 -460 111 C-460.21 111.58 -460.41 112.15 -460.62 112.75 C-461.23 115 -461.23 115 -460.06 116.88 C-458.67 119.66 -458.86 121.93 -459 125 C-457.02 124.5 -457.02 124.5 -455 124 C-455 124.66 -455 125.32 -455 126 C-454.01 125.67 -453.02 125.34 -452 125 C-452 125.99 -452 126.98 -452 128 C-451.67 128.66 -451.34 129.32 -451 130 C-448.69 130 -446.38 130 -444 130 C-443.67 130.66 -443.34 131.32 -443 132 C-441.02 132 -439.04 132 -437 132 C-437 132.66 -437 133.32 -437 134 C-436.01 134.33 -435.02 134.66 -434 135 C-434 135.99 -434 136.98 -434 138 C-433.67 138.99 -433.34 139.98 -433 141 C-431.21 141.19 -431.21 141.19 -429.38 141.38 C-425.72 141.82 -422.45 142.7 -419 144 C-419.33 143.01 -419.66 142.02 -420 141 C-419.01 140.67 -418.02 140.34 -417 140 C-417 140.66 -417 141.32 -417 142 C-415.76 141.94 -414.52 141.88 -413.25 141.81 C-409.28 141.78 -409.28 141.78 -407 143.56 C-404.53 145.34 -403.7 145.07 -400.75 144.69 C-399.51 144.46 -398.27 144.23 -397 144 C-396.34 144.99 -395.68 145.98 -395 147 C-395.33 147.66 -395.66 148.32 -396 149 C-394.42 149.42 -392.84 149.81 -391.25 150.19 C-390.37 150.41 -389.49 150.63 -388.58 150.86 C-385.3 151.04 -384.5 149.99 -382 148 C-378.06 148.38 -378.06 148.38 -376.1 148.77 C-373.97 149.12 -373.97 149.12 -371.8 148.52 C-368.53 147.91 -365.49 147.89 -362.17 147.9 C-360.88 147.91 -359.58 147.91 -358.25 147.91 C-356.9 147.92 -355.54 147.93 -354.19 147.94 C-352.81 147.94 -351.44 147.95 -350.06 147.95 C-346.71 147.96 -343.35 147.98 -340 148 C-340.33 149.32 -340.66 150.64 -341 152 C-332.09 152 -323.18 152 -314 152 C-314.33 150.68 -314.66 149.36 -315 148 C-310.38 148 -305.76 148 -301 148 C-300.67 148.66 -300.34 149.32 -300 150 C-299.05 149.81 -298.1 149.63 -297.12 149.44 C-294 149 -294 149 -292 150 C-289.82 149.94 -289.82 149.94 -287.44 149.62 C-286.23 149.49 -286.23 149.49 -285 149.35 C-283.01 149.2 -283.01 149.2 -282 148 C-279.71 147.91 -277.41 147.89 -275.12 147.9 C-274.09 147.9 -274.09 147.9 -273.04 147.91 C-270.84 147.91 -268.64 147.92 -266.44 147.94 C-264.95 147.94 -263.46 147.95 -261.97 147.95 C-258.31 147.96 -254.66 147.98 -251 148 C-251 148.66 -251 149.32 -251 150 C-248.69 149.67 -246.38 149.34 -244 149 C-244 148.67 -244 148.34 -244 148 C-240.96 147.92 -238.93 148.02 -236 149 C-233.66 148.72 -231.32 148.39 -229 148 C-228.67 149.32 -228.34 150.64 -228 152 C-227.03 151.84 -226.06 151.67 -225.06 151.5 C-217.95 150.5 -211.08 150.97 -204 152 C-204 151.34 -204 150.68 -204 150 C-201.29 148.65 -198.99 148.93 -196 149 C-196.33 149.99 -196.66 150.98 -197 152 C-194.03 152 -191.06 152 -188 152 C-188 151.34 -188 150.68 -188 150 C-182.72 149.34 -177.44 148.68 -172 148 C-172 148.66 -172 149.32 -172 150 C-170.08 149.97 -170.08 149.97 -168.12 149.94 C-164.25 149.88 -164.25 149.88 -162 151 C-162 151.66 -162 152.32 -162 153 C-160.02 153 -158.04 153 -156 153 C-156 152.01 -156 151.02 -156 150 C-153.37 149.97 -150.75 149.95 -148.12 149.94 C-147.38 149.93 -146.63 149.92 -145.86 149.91 C-140.23 149.89 -140.23 149.89 -138 151 C-138 151.66 -138 152.32 -138 153 C-137.34 153 -136.68 153 -136 153 C-136 152.34 -136 151.68 -136 151 C-132.04 151.33 -128.08 151.66 -124 152 C-124 151.01 -124 150.02 -124 149 C-123.34 149 -122.68 149 -122 149 C-122.33 147.68 -122.66 146.36 -123 145 C-122 145.02 -122 145.02 -120.99 145.04 C-114.44 145.12 -114.44 145.12 -108 144 C-108 144.66 -108 145.32 -108 146 C-106.01 146.38 -104.01 146.71 -102 147 C-101.67 146.67 -101.34 146.34 -101 146 C-99.46 145.98 -97.92 146.01 -96.38 146.06 C-91.82 146.12 -88.29 145.49 -84 144 C-84.03 142.79 -84.03 142.79 -84.06 141.56 C-84 139 -84 139 -83 138 C-81 137.96 -79 137.96 -77 138 C-76.67 138.99 -76.34 139.98 -76 141 C-72.53 140.01 -72.53 140.01 -69 139 C-68.67 136.69 -68.34 134.38 -68 132 C-67.01 132 -66.02 132 -65 132 C-62.91 131.91 -62.91 131.91 -61 131 C-59.7 128.51 -59.7 128.51 -59 126 C-57.35 126 -55.7 126 -54 126 C-54 125.34 -54 124.68 -54 124 C-53.11 123.79 -52.23 123.59 -51.31 123.38 C-45.26 120.86 -42.61 115.78 -40 110 C-39.01 110 -38.02 110 -37 110 C-37 109.34 -37 108.68 -37 108 C-36.09 107.75 -35.19 107.5 -34.25 107.25 C-30.81 105.93 -29.23 104.9 -27 102 C-26.65 100.34 -26.32 98.67 -26 97 C-24.71 94.97 -23.37 92.97 -22 91 C-21.29 89.36 -21.29 89.36 -20.56 87.69 C-19 85 -19 85 -16.31 84.12 C-15.55 84.08 -14.79 84.04 -14 84 C-14.08 83.01 -14.17 82.02 -14.25 81 C-14.29 76.37 -12.28 72.92 -10 69 C-10.66 68.67 -11.32 68.34 -12 68 C-10.68 68 -9.36 68 -8 68 C-7.95 67.28 -7.9 66.55 -7.85 65.8 C-7.45 60.57 -6.95 55.92 -5 51 C-3.19 46.3 -2.57 41.87 -2.31 36.88 C-2.27 36.17 -2.22 35.47 -2.17 34.75 C-1.97 31.25 -2.13 28.36 -3 25 C-2.67 23.66 -2.34 22.33 -2 21 C-1.79 19.34 -1.62 17.68 -1.46 16.02 C-1.38 15.08 -1.29 14.15 -1.2 13.18 C-1.11 12.22 -1.03 11.25 -0.94 10.25 C-0.85 9.27 -0.76 8.28 -0.66 7.27 C-0.44 4.85 -0.22 2.42 0 0 Z M-83 140 C-82 142 -82 142 -82 142 Z M-165 148 C-164.34 148 -163.68 148 -163 148 C-163.33 148.66 -163.66 149.32 -164 150 C-164.33 149.34 -164.66 148.68 -165 148 Z " fill="#1E57D5" transform="translate(508,356)"/>
<path d="M0 0 C0.33 0 0.66 0 1 0 C1 42.9 1 85.8 1 130 C-39.26 130 -79.52 130 -121 130 C-118.44 127.44 -116.87 127.47 -113.31 126.92 C-112.15 126.73 -110.98 126.55 -109.78 126.35 C-108.53 126.15 -107.29 125.95 -106 125.75 C-84 121.99 -61.98 115.26 -45 100 C-44.19 99.3 -43.37 98.61 -42.53 97.89 C-24.86 82.48 -13.35 62.5 -7 40 C-6.75 39.12 -6.51 38.25 -6.25 37.35 C-4.22 29.73 -3.16 22.21 -2.38 14.38 C-2.14 12.07 -1.89 9.77 -1.65 7.46 C-1.5 5.96 -1.5 5.96 -1.34 4.42 C-1 2 -1 2 0 0 Z " fill="#FCFDFD" transform="translate(511,382)"/>
<path d="M0 0 C35.57 -0.05 71.14 -0.08 106.7 -0.1 C110.9 -0.1 115.1 -0.11 119.3 -0.11 C120.14 -0.11 120.97 -0.11 121.83 -0.11 C135.37 -0.12 148.91 -0.14 162.44 -0.15 C176.33 -0.17 190.22 -0.18 204.11 -0.19 C212.68 -0.19 221.25 -0.2 229.82 -0.22 C235.69 -0.23 241.57 -0.23 247.45 -0.23 C250.84 -0.23 254.23 -0.23 257.62 -0.24 C261.3 -0.25 264.97 -0.25 268.65 -0.24 C269.72 -0.25 270.79 -0.25 271.9 -0.26 C277 -0.24 281.23 -0.05 286 2 C286 2.66 286 3.32 286 4 C287.58 3.97 287.58 3.97 289.19 3.94 C292.33 3.99 294.97 4.27 298 5 C298 5.66 298 6.32 298 7 C299.13 7.15 299.13 7.15 300.27 7.3 C309.28 8.61 317.35 10.9 325 16 C322.6 16.86 321.48 17.23 319.12 16.12 C318.42 15.75 317.72 15.38 317 15 C316.07 14.86 315.14 14.71 314.19 14.56 C311 14 311 14 307.5 12.44 C304.19 10.82 304.19 10.82 301.12 11 C294.91 11 289.1 8.46 284 5 C283.67 5.99 283.34 6.98 283 8 C283 7.34 283 6.68 283 6 C281.85 6.19 280.69 6.37 279.5 6.56 C274.79 7.1 270.22 6.92 265.5 6.62 C264.78 6.58 264.06 6.54 263.32 6.49 C258.13 6.13 258.13 6.13 257 5 C249.27 3.68 241.53 4.04 233.75 4.44 C220.79 5.07 207.85 5.13 194.88 5.12 C193.81 5.13 192.75 5.13 191.65 5.13 C177.08 5.12 162.53 4.92 147.97 4.27 C146.28 4.2 146.28 4.2 144.55 4.12 C143.59 4.07 142.63 4.03 141.64 3.98 C138.99 3.91 138.99 3.91 136.4 4.55 C133.8 5.04 132.52 4.7 130 4 C128.12 3.92 126.24 3.89 124.36 3.9 C122.75 3.91 122.75 3.91 121.12 3.91 C120.01 3.92 118.89 3.93 117.75 3.94 C116.62 3.94 115.5 3.95 114.34 3.95 C111.56 3.96 108.78 3.98 106 4 C106 4.66 106 5.32 106 6 C103.36 6 100.72 6 98 6 C98.33 5.01 98.66 4.02 99 3 C100.98 3 102.96 3 105 3 C105 2.34 105 1.68 105 1 C104.01 1.17 103.02 1.33 102 1.5 C97.97 2.08 94.07 2.07 90 2 C90 2.66 90 3.32 90 4 C86.17 4.2 82.33 4.38 78.5 4.56 C76.88 4.65 76.88 4.65 75.23 4.73 C74.18 4.78 73.12 4.83 72.03 4.88 C70.59 4.95 70.59 4.95 69.11 5.02 C66.07 5 63.16 4.63 60.15 4.22 C56.3 3.82 52.47 3.95 48.61 4.05 C47.31 4.08 47.31 4.08 45.98 4.11 C44.16 4.15 42.34 4.19 40.53 4.24 C37.74 4.31 34.96 4.37 32.18 4.42 C30.41 4.46 28.63 4.51 26.86 4.55 C25.62 4.57 25.62 4.57 24.35 4.6 C20.37 4.71 17.48 4.88 14 7 C12.66 6.72 11.32 6.37 10 6 C7.26 5.9 4.55 5.86 1.81 5.88 C0.67 5.88 0.67 5.88 -0.5 5.88 C-5.74 5.93 -10.81 6.23 -16 7 C-17.16 7.14 -18.31 7.29 -19.5 7.44 C-20.74 7.72 -20.74 7.72 -22 8 C-22.33 8.66 -22.66 9.32 -23 10 C-25.33 10.35 -27.66 10.68 -30 11 C-31.34 11.64 -32.68 12.31 -34 13 C-35.82 13.71 -37.66 14.4 -39.5 15.06 C-40.91 15.57 -40.91 15.57 -42.34 16.1 C-45 17 -45 17 -47.2 17.48 C-49.3 17.93 -49.3 17.93 -51.25 20.31 C-54.12 23.12 -56.57 24.37 -60.15 26.03 C-62.56 27.29 -64.15 29.02 -66 31 C-66.83 31.47 -67.65 31.95 -68.5 32.44 C-71.42 34.26 -72.85 36.3 -75 39 C-76.99 40.84 -79.03 42.6 -81.1 44.35 C-83.67 46.55 -83.67 46.55 -86 49 C-86 49.99 -86 50.98 -86 52 C-87.47 53.28 -88.94 54.55 -90.49 55.72 C-92.27 57.11 -92.27 57.11 -94 60 C-94.08 61.3 -94.16 62.6 -94.25 63.94 C-94.45 66.06 -94.45 66.06 -95 68 C-98.06 70.5 -98.06 70.5 -101 72 C-102 69 -102 69 -101.32 66.98 C-98.64 61.71 -95.64 56.76 -92.31 51.88 C-91.92 51.29 -91.53 50.71 -91.12 50.12 C-90.14 48.7 -89.07 47.35 -88 46 C-87.34 46 -86.68 46 -86 46 C-86 45.34 -86 44.68 -86 44 C-85.34 44 -84.68 44 -84 44 C-83.77 43.46 -83.55 42.93 -83.31 42.38 C-80.15 36.64 -76.43 33.51 -71 30 C-70.28 29.23 -69.55 28.46 -68.8 27.67 C-65.51 24.53 -62.1 22.53 -58.12 20.38 C-57.44 19.99 -56.76 19.61 -56.06 19.22 C-51.8 16.87 -47.5 14.84 -43 13 C-41.39 12.33 -41.39 12.33 -39.75 11.65 C-33.77 9.26 -28.45 7.38 -22 7 C-22 6.34 -22 5.68 -22 5 C-7.4 1.56 -7.4 1.56 0 2 C0 1.34 0 0.68 0 0 Z " fill="#E4FEFE" transform="translate(118,0)"/>
<path d="M0 0 C2.2 3.79 2.11 6.51 1.88 10.78 C2.02 13.33 2.86 14.74 4 17 C4.24 19.26 4.24 19.26 4.31 21.69 C4.7 26.61 6.3 29.62 8.86 33.76 C10.43 36.84 10.69 39.64 10.86 43.05 C10.94 45.22 10.94 45.22 12 48 C13.98 48.33 15.96 48.66 18 49 C18 51.31 18 53.62 18 56 C19.65 56 21.3 56 23 56 C22.67 57.98 22.34 59.96 22 62 C22.99 62 23.98 62 25 62 C26 68.62 26 68.62 26 72 C26.66 72 27.32 72 28 72 C28 72.66 28 73.32 28 74 C29.32 74 30.64 74 32 74 C32.66 73.34 33.32 72.68 34 72 C34 72.66 34 73.32 34 74 C34.66 74 35.32 74 36 74 C36.33 74.66 36.66 75.32 37 76 C39.47 75.5 39.47 75.5 42 75 C41.79 75.58 41.59 76.15 41.38 76.75 C40.77 79 40.77 79 41.94 80.88 C43.33 83.66 43.14 85.93 43 89 C44.98 88.5 44.98 88.5 47 88 C47 88.66 47 89.32 47 90 C47.99 89.67 48.98 89.34 50 89 C50 89.99 50 90.98 50 92 C50.33 92.66 50.66 93.32 51 94 C53.31 94 55.62 94 58 94 C58.33 94.66 58.66 95.32 59 96 C60.98 96 62.96 96 65 96 C65 96.66 65 97.32 65 98 C66.48 98.5 66.48 98.5 68 99 C68 99.99 68 100.98 68 102 C68.33 102.99 68.66 103.98 69 105 C70.79 105.19 70.79 105.19 72.62 105.38 C76.28 105.82 79.55 106.7 83 108 C82.67 107.01 82.34 106.02 82 105 C82.99 104.67 83.98 104.34 85 104 C85 104.66 85 105.32 85 106 C86.24 105.94 87.47 105.88 88.75 105.81 C92.72 105.78 92.72 105.78 95 107.56 C97.47 109.34 98.3 109.07 101.25 108.69 C102.49 108.46 103.72 108.23 105 108 C105.99 109.49 105.99 109.49 107 111 C106.67 111.66 106.34 112.32 106 113 C107.58 113.42 109.16 113.81 110.75 114.19 C111.63 114.41 112.51 114.63 113.42 114.86 C116.7 115.04 117.5 113.99 120 112 C123.94 112.38 123.94 112.38 125.9 112.77 C128.03 113.12 128.03 113.12 130.2 112.52 C133.47 111.91 136.51 111.89 139.83 111.9 C141.12 111.91 142.42 111.91 143.75 111.91 C145.1 111.92 146.46 111.93 147.81 111.94 C149.19 111.94 150.56 111.95 151.94 111.95 C155.29 111.96 158.65 111.98 162 112 C161.67 113.65 161.34 115.3 161 117 C162.17 116.99 163.34 116.99 164.55 116.98 C168.88 116.97 173.22 116.95 177.55 116.95 C179.43 116.94 181.31 116.93 183.19 116.92 C185.88 116.91 188.58 116.91 191.27 116.9 C192.12 116.9 192.96 116.89 193.83 116.89 C199.77 116.89 199.77 116.89 202 118 C204.42 118.1 206.81 118.13 209.23 118.12 C209.98 118.12 210.73 118.12 211.51 118.12 C214.04 118.12 216.58 118.12 219.12 118.11 C220.93 118.11 222.74 118.11 224.56 118.11 C229.49 118.11 234.42 118.11 239.36 118.1 C244.51 118.1 249.66 118.09 254.81 118.09 C264.57 118.09 274.33 118.08 284.09 118.07 C295.2 118.06 306.31 118.06 317.42 118.05 C340.28 118.04 363.14 118.02 386 118 C384 120 384 120 382.03 120.25 C381.22 120.25 380.41 120.25 379.57 120.25 C378.16 120.25 378.16 120.25 376.73 120.26 C375.69 120.25 374.65 120.25 373.59 120.24 C372.49 120.24 371.39 120.24 370.26 120.25 C366.57 120.25 362.87 120.24 359.17 120.23 C356.53 120.23 353.89 120.23 351.25 120.23 C345.55 120.23 339.85 120.22 334.16 120.21 C325.92 120.2 317.68 120.19 309.44 120.19 C296.08 120.18 282.71 120.17 269.35 120.15 C256.36 120.13 243.38 120.12 230.39 120.11 C229.19 120.11 229.19 120.11 227.97 120.11 C223.95 120.11 219.94 120.1 215.93 120.1 C182.62 120.08 149.31 120.04 116 120 C116 119.34 116 118.68 116 118 C115.14 117.97 114.28 117.95 113.39 117.92 C92.2 116.94 72.59 111.24 54 101 C53.15 100.55 52.29 100.1 51.41 99.63 C27.66 85.9 13.51 62.91 4 38 C3.68 37.2 3.36 36.4 3.03 35.58 C-0.2 27.44 -1.32 19.77 -1.19 11.06 C-1.19 10.21 -1.19 9.36 -1.19 8.49 C-1.14 2.28 -1.14 2.28 0 0 Z " fill="#467DEB" transform="translate(6,392)"/>
<path d="M0 0 C0.66 0 1.32 0 2 0 C2.08 5.37 2.13 10.73 2.16 16.1 C2.18 17.92 2.2 19.74 2.23 21.55 C2.45 37.15 1.1 52.07 -3.25 67.12 C-3.46 67.86 -3.67 68.59 -3.89 69.35 C-9.74 88.96 -19.92 107.02 -35 121 C-36.49 121.5 -36.49 121.5 -38 122 C-38.33 122.99 -38.66 123.98 -39 125 C-40.63 126.39 -40.63 126.39 -42.56 127.69 C-43.2 128.12 -43.84 128.56 -44.5 129.01 C-45 129.34 -45.49 129.66 -46 130 C-46.5 129.01 -46.5 129.01 -47 128 C-48.32 128 -49.64 128 -51 128 C-51.19 128.6 -51.37 129.2 -51.56 129.81 C-54.67 134.54 -61.77 135.61 -67 137 C-67.33 135.35 -67.66 133.7 -68 132 C-67.01 132 -66.02 132 -65 132 C-62.91 131.91 -62.91 131.91 -61 131 C-59.7 128.51 -59.7 128.51 -59 126 C-57.35 126 -55.7 126 -54 126 C-54 125.34 -54 124.68 -54 124 C-52.67 123.69 -52.67 123.69 -51.31 123.38 C-45.26 120.86 -42.61 115.78 -40 110 C-39.01 110 -38.02 110 -37 110 C-37 109.34 -37 108.68 -37 108 C-36.09 107.75 -35.19 107.5 -34.25 107.25 C-30.81 105.93 -29.23 104.9 -27 102 C-26.65 100.34 -26.32 98.67 -26 97 C-24.71 94.97 -23.37 92.97 -22 91 C-21.53 89.91 -21.05 88.81 -20.56 87.69 C-19 85 -19 85 -16.31 84.12 C-15.55 84.08 -14.79 84.04 -14 84 C-14.08 83.01 -14.17 82.02 -14.25 81 C-14.29 76.37 -12.28 72.92 -10 69 C-10.99 68.5 -10.99 68.5 -12 68 C-10.68 68 -9.36 68 -8 68 C-7.95 67.28 -7.9 66.55 -7.85 65.8 C-7.45 60.57 -6.95 55.92 -5 51 C-3.19 46.3 -2.57 41.87 -2.31 36.88 C-2.27 36.17 -2.22 35.47 -2.17 34.75 C-1.97 31.25 -2.13 28.36 -3 25 C-2.67 23.66 -2.34 22.33 -2 21 C-1.79 19.34 -1.62 17.68 -1.46 16.02 C-1.38 15.08 -1.29 14.15 -1.2 13.18 C-1.11 12.22 -1.03 11.25 -0.94 10.25 C-0.85 9.27 -0.76 8.28 -0.66 7.27 C-0.44 4.85 -0.22 2.42 0 0 Z " fill="#2861D2" transform="translate(508,356)"/>
<path d="M0 0 C2.2 3.79 2.11 6.51 1.88 10.78 C2.02 13.33 2.86 14.74 4 17 C4.24 19.26 4.24 19.26 4.31 21.69 C4.7 26.61 6.3 29.62 8.86 33.76 C10.43 36.84 10.69 39.64 10.86 43.05 C10.94 45.22 10.94 45.22 12 48 C13.98 48.33 15.96 48.66 18 49 C18 51.31 18 53.62 18 56 C19.65 56 21.3 56 23 56 C22.67 57.98 22.34 59.96 22 62 C22.99 62 23.98 62 25 62 C26 68.62 26 68.62 26 72 C26.66 72 27.32 72 28 72 C28 72.66 28 73.32 28 74 C29.32 74 30.64 74 32 74 C32.66 73.34 33.32 72.68 34 72 C34 72.66 34 73.32 34 74 C34.66 74 35.32 74 36 74 C36.33 74.66 36.66 75.32 37 76 C39.47 75.5 39.47 75.5 42 75 C41.79 75.58 41.59 76.15 41.38 76.75 C40.77 79 40.77 79 41.94 80.88 C43.33 83.66 43.14 85.93 43 89 C44.98 88.5 44.98 88.5 47 88 C47 88.66 47 89.32 47 90 C47.99 89.67 48.98 89.34 50 89 C50 89.99 50 90.98 50 92 C50.95 94.75 51.86 95.89 54.19 97.69 C57.47 99.22 60.41 99.65 64 100 C64 100.66 64 101.32 64 102 C64.66 102 65.32 102 66 102 C66 102.66 66 103.32 66 104 C66.66 104 67.32 104 68 104 C68 104.66 68 105.32 68 106 C71.3 106.66 74.6 107.32 78 108 C78 108.66 78 109.32 78 110 C79.98 110.5 79.98 110.5 82 111 C75.21 113.26 66.05 107.12 59.88 104.12 C57.91 103.1 55.95 102.06 54 101 C53.14 100.55 52.29 100.09 51.4 99.62 C27.66 85.87 13.51 62.91 4 38 C3.68 37.2 3.36 36.4 3.03 35.58 C-0.2 27.44 -1.32 19.77 -1.19 11.06 C-1.19 10.21 -1.19 9.36 -1.19 8.49 C-1.14 2.28 -1.14 2.28 0 0 Z " fill="#3B76E7" transform="translate(6,392)"/>
<path d="M0 0 C0.33 0 0.66 0 1 0 C1 0.55 1 1.1 1 1.66 C0.98 34.21 0.96 66.76 0.95 99.31 C0.95 103.23 0.95 107.14 0.95 111.06 C0.94 111.84 0.94 112.62 0.94 113.42 C0.94 126.01 0.93 138.61 0.92 151.2 C0.91 164.14 0.91 177.07 0.91 190.01 C0.9 197.98 0.9 205.95 0.89 213.92 C0.89 220.05 0.89 226.18 0.89 232.31 C0.89 234.82 0.88 237.32 0.88 239.82 C0.84 263.22 0.84 263.22 3.06 286.5 C3.33 288.37 3.33 288.37 3.6 290.28 C3.73 291.18 3.86 292.08 4 293 C3.34 292.67 2.68 292.34 2 292 C2 290.68 2 289.36 2 288 C1.34 288 0.68 288 0 288 C-2.45 282.28 -2.28 276.9 -2.25 270.8 C-2.26 269.66 -2.26 268.53 -2.26 267.36 C-2.27 263.57 -2.27 259.77 -2.26 255.97 C-2.26 253.25 -2.26 250.53 -2.27 247.81 C-2.28 241.18 -2.28 234.55 -2.27 227.93 C-2.27 222.54 -2.27 217.16 -2.27 211.77 C-2.27 211 -2.27 210.24 -2.27 209.45 C-2.27 207.89 -2.27 206.33 -2.27 204.78 C-2.28 190.18 -2.27 175.58 -2.26 160.98 C-2.25 148.45 -2.25 135.92 -2.26 123.39 C-2.27 108.85 -2.28 94.3 -2.27 79.75 C-2.27 78.2 -2.27 76.65 -2.27 75.1 C-2.27 74.33 -2.27 73.57 -2.27 72.78 C-2.26 67.4 -2.27 62.02 -2.27 56.64 C-2.28 50.09 -2.28 43.54 -2.27 36.98 C-2.26 33.64 -2.26 30.29 -2.27 26.95 C-2.27 23.32 -2.26 19.7 -2.25 16.08 C-2.26 15.02 -2.26 13.96 -2.27 12.87 C-2.26 11.9 -2.26 10.93 -2.25 9.92 C-2.25 9.09 -2.25 8.25 -2.25 7.39 C-1.96 4.65 -1.12 2.5 0 0 Z " fill="#E2F3FE" transform="translate(2,122)"/>
<path d="M0 0 C19.53 -0.05 39.07 -0.08 58.6 -0.1 C67.68 -0.11 76.75 -0.13 85.82 -0.15 C93.74 -0.17 101.66 -0.18 109.58 -0.19 C113.76 -0.19 117.94 -0.2 122.13 -0.21 C137.13 -0.26 152.09 -0.31 167.05 0.89 C168.03 0.96 169.02 1.04 170.03 1.12 C176.61 1.74 176.61 1.74 180 4 C179.34 4.99 178.68 5.98 178 7 C178 6.34 178 5.68 178 5 C176.27 5.28 176.27 5.28 174.5 5.56 C169.79 6.1 165.22 5.92 160.5 5.62 C159.78 5.58 159.06 5.54 158.32 5.49 C153.13 5.13 153.13 5.13 152 4 C144.27 2.68 136.53 3.04 128.75 3.44 C115.79 4.07 102.85 4.13 89.88 4.12 C88.81 4.13 87.75 4.13 86.65 4.13 C72.08 4.12 57.53 3.92 42.97 3.27 C41.28 3.2 41.28 3.2 39.55 3.12 C38.59 3.07 37.63 3.03 36.64 2.98 C33.99 2.91 33.99 2.91 31.4 3.55 C28.8 4.04 27.52 3.7 25 3 C23.12 2.92 21.24 2.89 19.36 2.9 C17.75 2.91 17.75 2.91 16.12 2.91 C15.01 2.92 13.89 2.93 12.75 2.94 C11.62 2.94 10.5 2.95 9.34 2.95 C6.56 2.96 3.78 2.98 1 3 C1 3.66 1 4.32 1 5 C-1.64 5 -4.28 5 -7 5 C-6.67 4.01 -6.34 3.02 -6 2 C-4.02 2 -2.04 2 0 2 C0 1.34 0 0.68 0 0 Z " fill="#C0EAF2" transform="translate(223,1)"/>
<path d="M0 0 C0.98 3.19 1.05 5.81 0.75 9.12 C0.68 9.99 0.62 10.86 0.55 11.76 C0 14 0 14 -3 16 C-3.36 17.98 -3.36 17.98 -3.19 20.12 C-3.13 21.4 -3.06 22.68 -3 24 C-3.66 24 -4.32 24 -5 24 C-4.94 25.33 -4.94 25.33 -4.88 26.69 C-5 30 -5 30 -5.97 32.19 C-7.31 35.85 -7.42 39.4 -7.56 43.25 C-7.77 47.85 -7.98 52.38 -8.69 56.94 C-9.32 61.8 -8.19 66.3 -7 71 C-8.48 71.5 -8.48 71.5 -10 72 C-9.84 73.06 -9.67 74.12 -9.5 75.22 C-8.78 80.97 -8.89 86.71 -8.94 92.5 C-8.94 93.61 -8.95 94.72 -8.95 95.86 C-8.96 98.57 -8.98 101.29 -9 104 C-8.34 104.33 -7.68 104.66 -7 105 C-7.14 105.86 -7.29 106.72 -7.44 107.61 C-8.69 115.85 -9.1 123.72 -8.96 132.05 C-8.89 138.88 -9.65 145.29 -11 152 C-11.66 152 -12.32 152 -13 152 C-13.05 140.94 -13.08 129.88 -13.1 118.82 C-13.11 113.68 -13.13 108.55 -13.15 103.41 C-13.39 49.27 -13.39 49.27 -8 24 C-7.85 23.08 -7.7 22.17 -7.54 21.23 C-6.28 13.69 -3.41 6.81 0 0 Z " fill="#ABC4E5" transform="translate(15,72)"/>
<path d="M0 0 C0.33 0 0.66 0 1 0 C1.03 2.17 1.05 4.33 1.06 6.5 C1.07 7.71 1.09 8.91 1.1 10.16 C1 14 1 14 0.51 17.73 C-0.02 21.85 -0.22 25.95 -0.32 30.09 C-0.34 30.84 -0.36 31.59 -0.38 32.37 C-0.42 33.95 -0.46 35.53 -0.5 37.11 C-0.56 39.47 -0.63 41.83 -0.69 44.19 C-0.96 54.13 -1.05 64.06 -1 74 C-0.67 74 -0.34 74 0 74 C0.04 75.78 0.04 75.78 0.08 77.59 C0.17 82 0.27 86.41 0.37 90.82 C0.42 92.72 0.46 94.63 0.5 96.53 C0.56 99.28 0.62 102.02 0.68 104.76 C0.71 106.04 0.71 106.04 0.73 107.33 C0.82 110.62 0.93 113.66 1.58 116.89 C2 119 2 119 1 122 C0.91 123.54 0.87 125.08 0.87 126.62 C0.87 127.56 0.86 128.49 0.86 129.45 C0.86 130.46 0.87 131.47 0.87 132.5 C0.87 133.54 0.87 134.57 0.86 135.64 C0.86 137.82 0.87 140.01 0.87 142.2 C0.87 145.55 0.87 148.91 0.86 152.26 C0.86 154.39 0.87 156.51 0.87 158.63 C0.87 159.64 0.86 160.65 0.86 161.68 C0.86 162.62 0.87 163.55 0.87 164.51 C0.87 165.33 0.87 166.15 0.87 167 C0.87 169.07 0.87 169.07 2 171 C2.23 177.53 2.23 177.53 1 180 C0.77 181.87 0.59 183.75 0.44 185.62 C0.35 186.63 0.27 187.63 0.18 188.66 C0.12 189.43 0.06 190.21 0 191 C-0.33 191 -0.66 191 -1 191 C-3.75 178.91 -3.15 165.83 -3.11 153.5 C-3.11 151.92 -3.11 150.34 -3.11 148.76 C-3.11 144.53 -3.11 140.3 -3.1 136.07 C-3.1 131.63 -3.09 127.19 -3.09 122.74 C-3.09 114.36 -3.08 105.97 -3.07 97.59 C-3.06 88.03 -3.06 78.47 -3.05 68.91 C-3.04 49.28 -3.02 29.64 -3 10 C-2.34 10 -1.68 10 -1 10 C-1.02 8.72 -1.04 7.44 -1.06 6.12 C-1.12 2.25 -1.12 2.25 0 0 Z " fill="#7097E5" transform="translate(5,214)"/>
<path d="M0 0 C2.31 0.66 4.62 1.32 7 2 C7 2.66 7 3.32 7 4 C7.78 4.19 8.57 4.37 9.38 4.56 C14.43 6.57 18.83 9.51 23 13 C23 13.66 23 14.32 23 15 C23.56 15.23 24.11 15.45 24.69 15.69 C27.64 17.37 29.72 19.53 32 22 C33.03 23.09 33.03 23.09 34.07 24.2 C41.28 32 47.12 40.12 52.19 49.44 C52.51 50.02 52.83 50.61 53.16 51.21 C58.03 60.41 60.71 70.09 62.75 80.25 C62.97 81.29 63.19 82.32 63.42 83.39 C64.51 88.69 65.28 93.59 65 99 C62.61 95.17 62.44 91.4 62 87 C61.34 87 60.68 87 60 87 C59.94 86.26 59.88 85.53 59.82 84.77 C59.73 83.79 59.65 82.82 59.56 81.81 C59.48 80.85 59.4 79.89 59.32 78.89 C59.02 76.21 58.57 73.63 58 71 C57.34 71 56.68 71 56 71 C55.88 70.43 55.76 69.86 55.63 69.28 C55.11 66.85 54.55 64.42 54 62 C53.86 61.31 53.71 60.62 53.56 59.91 C52.73 56.2 52.73 56.2 50 53.75 C49.34 53.5 48.68 53.25 48 53 C45.57 49.36 45.84 47.29 46 43 C45.34 43 44.68 43 44 43 C43.67 42.01 43.34 41.02 43 40 C42.22 39.77 41.43 39.55 40.62 39.31 C38 38 38 38 37.14 36.2 C36.67 34.77 36.21 33.33 35.76 31.89 C34.76 29.4 33.17 28.5 31 27 C31 25.68 31 24.36 31 23 C30.34 23 29.68 23 29 23 C28.67 22.34 28.34 21.68 28 21 C27.01 20.67 26.02 20.34 25 20 C25 19.34 25 18.68 25 18 C23.68 18 22.36 18 21 18 C20.67 16.68 20.34 15.36 20 14 C18.35 14 16.7 14 15 14 C14 12 14 12 13.29 9.98 C11.44 7.15 9.61 7 6.38 6.25 C5.37 6.01 4.37 5.77 3.34 5.52 C2.57 5.35 1.79 5.18 1 5 C0.67 3.35 0.34 1.7 0 0 Z " fill="#9ACCE9" transform="translate(443,17)"/>
<path d="M0 0 C1.77 0 3.54 0 5.31 0 C9.92 0.01 14.52 0.02 19.12 0.03 C23.84 0.04 28.56 0.04 33.28 0.05 C42.5 0.06 51.72 0.08 60.94 0.1 C60.94 0.43 60.94 0.76 60.94 1.1 C58.3 1.1 55.66 1.1 52.94 1.1 C52.94 1.76 52.94 2.42 52.94 3.1 C49.1 3.3 45.27 3.48 41.44 3.66 C39.82 3.74 39.82 3.74 38.17 3.83 C37.11 3.88 36.06 3.93 34.97 3.98 C34.01 4.02 33.04 4.07 32.05 4.12 C29 4.1 26.1 3.73 23.09 3.32 C19.24 2.92 15.41 3.05 11.55 3.15 C10.25 3.18 10.25 3.18 8.92 3.21 C7.1 3.25 5.28 3.29 3.46 3.34 C0.68 3.41 -2.1 3.46 -4.88 3.52 C-6.66 3.56 -8.43 3.6 -10.2 3.65 C-11.03 3.66 -11.86 3.68 -12.72 3.69 C-16.7 3.81 -19.58 3.97 -23.06 6.1 C-24.41 5.81 -25.74 5.47 -27.06 5.1 C-29.8 5 -32.51 4.96 -35.25 4.97 C-36.39 4.97 -36.39 4.97 -37.55 4.97 C-41.58 5 -45.5 5.17 -49.5 5.72 C-50.68 5.85 -51.85 5.97 -53.06 6.1 C-53.72 5.44 -54.38 4.78 -55.06 4.1 C-52.06 3.61 -49.06 3.13 -46.06 2.66 C-44.83 2.46 -44.83 2.46 -43.58 2.25 C-29.13 0.01 -14.58 -0.05 0 0 Z " fill="#C5EAF3" transform="translate(155.0625,0.90234375)"/>
<path d="M0 0 C0.33 0 0.66 0 1 0 C1.05 12.22 1.08 24.44 1.1 36.66 C1.11 42.34 1.13 48.01 1.15 53.69 C1.17 59.16 1.18 64.63 1.19 70.11 C1.19 72.2 1.2 74.29 1.21 76.38 C1.23 79.3 1.23 82.22 1.23 85.14 C1.23 86.02 1.24 86.89 1.25 87.79 C1.23 93.77 1.23 93.77 -1 96 C-1 86.76 -1 77.52 -1 68 C-2.49 68.5 -2.49 68.5 -4 69 C-4.03 63.29 -4.04 57.59 -4.05 51.88 C-4.06 49.95 -4.07 48.01 -4.08 46.08 C-4.18 21.81 -4.18 21.81 -3 12 C-2.67 11.67 -2.34 11.34 -2 11 C-1.61 9.15 -1.26 7.3 -0.94 5.44 C-0.76 4.43 -0.58 3.41 -0.4 2.37 C-0.2 1.2 -0.2 1.2 0 0 Z " fill="#60A4F1" transform="translate(511,288)"/>
<path d="M0 0 C0.99 0.33 1.98 0.66 3 1 C1.52 5.36 -1.66 6.88 -5.5 8.94 C-6.14 9.29 -6.77 9.64 -7.43 10 C-8.71 10.69 -9.99 11.38 -11.27 12.07 C-12.68 12.83 -14.06 13.62 -15.45 14.42 C-36.62 26.14 -64.23 29.12 -88 28 C-88 27.67 -88 27.34 -88 27 C-75.46 25.68 -62.92 24.36 -50 23 C-50 22.34 -50 21.68 -50 21 C-45.05 19.68 -40.1 18.36 -35 17 C-35 15.35 -35 13.7 -35 12 C-34 11 -34 11 -30.94 10.94 C-29.48 10.97 -29.48 10.97 -28 11 C-27.5 12.49 -27.5 12.49 -27 14 C-24.65 13.4 -22.31 12.73 -20 12 C-19.67 11.34 -19.34 10.68 -19 10 C-17.14 9 -17.14 9 -14.81 8 C-14 7.65 -13.19 7.3 -12.35 6.94 C-10 6 -10 6 -6.69 5 C-3.64 3.87 -2.11 2.44 0 0 Z M-34 13 C-33 15 -33 15 -33 15 Z " fill="#2D58B4" transform="translate(459,483)"/>
<path d="M0 0 C-0.96 0.19 -0.96 0.19 -1.94 0.38 C-2.62 0.58 -3.3 0.79 -4 1 C-4.33 1.66 -4.66 2.32 -5 3 C-7.33 3.35 -9.66 3.68 -12 4 C-13.34 4.64 -14.68 5.31 -16 6 C-17.82 6.71 -19.66 7.4 -21.5 8.06 C-22.91 8.57 -22.91 8.57 -24.34 9.1 C-27 10 -27 10 -29.2 10.48 C-31.3 10.93 -31.3 10.93 -33.25 13.31 C-36.12 16.12 -38.57 17.37 -42.15 19.03 C-44.56 20.29 -46.15 22.02 -48 24 C-48.83 24.47 -49.65 24.95 -50.5 25.44 C-53.42 27.26 -54.85 29.3 -57 32 C-58.99 33.84 -61.03 35.6 -63.1 37.35 C-65.67 39.55 -65.67 39.55 -68 42 C-68 42.99 -68 43.98 -68 45 C-69.47 46.28 -70.94 47.55 -72.49 48.72 C-74.27 50.11 -74.27 50.11 -76 53 C-76.08 54.3 -76.16 55.6 -76.25 56.94 C-76.45 59.06 -76.45 59.06 -77 61 C-80.06 63.5 -80.06 63.5 -83 65 C-84 62 -84 62 -83.32 59.98 C-80.64 54.71 -77.64 49.76 -74.31 44.88 C-73.92 44.29 -73.53 43.71 -73.12 43.12 C-72.14 41.7 -71.07 40.35 -70 39 C-69.34 39 -68.68 39 -68 39 C-68 38.34 -68 37.68 -68 37 C-67.34 37 -66.68 37 -66 37 C-65.77 36.46 -65.55 35.93 -65.31 35.38 C-62.15 29.64 -58.43 26.51 -53 23 C-52.28 22.23 -51.55 21.46 -50.8 20.67 C-47.51 17.53 -44.1 15.53 -40.12 13.38 C-39.1 12.8 -39.1 12.8 -38.06 12.22 C-10.31 -3.11 -10.31 -3.11 0 0 Z " fill="#BEE1F0" transform="translate(100,7)"/>
<path d="M0 0 C4.62 0 9.24 0 14 0 C14.33 0.66 14.66 1.32 15 2 C15.95 1.81 16.9 1.63 17.88 1.44 C21 1 21 1 23 2 C25.18 1.94 25.18 1.94 27.56 1.62 C28.77 1.49 28.77 1.49 30 1.35 C31.99 1.2 31.99 1.2 33 0 C35.29 -0.09 37.59 -0.11 39.88 -0.1 C40.91 -0.1 40.91 -0.1 41.96 -0.09 C44.16 -0.09 46.36 -0.08 48.56 -0.06 C50.05 -0.06 51.54 -0.05 53.03 -0.05 C56.69 -0.04 60.34 -0.02 64 0 C64 0.66 64 1.32 64 2 C67.47 1.5 67.47 1.5 71 1 C71 0.67 71 0.34 71 0 C74.04 -0.08 76.07 0.02 79 1 C81.34 0.72 83.68 0.39 86 0 C86.5 1.98 86.5 1.98 87 4 C70.79 5 54.61 5.11 38.38 5.12 C36.81 5.13 36.81 5.13 35.21 5.13 C23.76 5.15 12.4 5.09 1 4 C0.67 2.68 0.34 1.36 0 0 Z " fill="#2262E9" transform="translate(193,504)"/>
<path d="M0 0 C0.33 0 0.66 0 1 0 C3.33 7.14 3.31 14.18 3.26 21.62 C3.25 23.73 3.26 25.85 3.27 27.96 C3.28 36.14 2.68 43.97 1 52 C4.46 51.5 4.46 51.5 8 51 C8 51.66 8 52.32 8 53 C8.66 53 9.32 53 10 53 C10.37 67.94 10.17 85.98 0 98 C-3.42 100.63 -5.71 101.37 -10 101 C-9.01 100.5 -9.01 100.5 -8 100 C-8 99.34 -8 98.68 -8 98 C-6.02 98 -4.04 98 -2 98 C-1.71 96.97 -1.71 96.97 -1.41 95.92 C-1.15 95.02 -0.89 94.12 -0.62 93.19 C-0.37 92.29 -0.11 91.4 0.15 90.48 C1 88 1 88 3 85 C3.57 82.87 3.57 82.87 3.94 80.5 C4.63 76.69 5.55 73.08 6.69 69.38 C8.08 64.47 8.03 60.97 7 56 C4.03 55.01 1.06 54.02 -2 53 C-1.77 51.21 -1.54 49.42 -1.32 47.63 C-1.21 46.76 -1.11 45.89 -1 45 C-0.92 44.37 -0.84 43.73 -0.75 43.08 C-0.11 37.78 0.13 32.59 0.1 27.25 C0.1 26.46 0.09 25.67 0.09 24.86 C0.09 22.39 0.08 19.91 0.06 17.44 C0.06 15.74 0.05 14.05 0.05 12.36 C0.04 8.24 0.02 4.12 0 0 Z " fill="#438BE9" transform="translate(338,136)"/>
<path d="M0 0 C0.66 0 1.32 0 2 0 C2.05 5.44 2.09 10.88 2.11 16.32 C2.12 18.17 2.13 20.01 2.15 21.85 C2.36 44.52 2.36 44.52 0 54 C-0.66 54.66 -1.32 55.32 -2 56 C-5.15 62.41 -6.86 68.98 -8 76 C-8.66 76 -9.32 76 -10 76 C-10 76.66 -10 77.32 -10 78 C-10.66 78 -11.32 78 -12 78 C-12.33 79.98 -12.66 81.96 -13 84 C-13.33 84 -13.66 84 -14 84 C-14.51 77.93 -13.04 74.23 -10 69 C-10.66 68.67 -11.32 68.34 -12 68 C-10.68 68 -9.36 68 -8 68 C-7.95 67.28 -7.9 66.55 -7.85 65.8 C-7.45 60.57 -6.95 55.92 -5 51 C-3.19 46.3 -2.57 41.87 -2.31 36.88 C-2.24 35.82 -2.24 35.82 -2.17 34.75 C-1.97 31.25 -2.13 28.36 -3 25 C-2.67 23.66 -2.34 22.33 -2 21 C-1.79 19.34 -1.62 17.68 -1.46 16.02 C-1.33 14.61 -1.33 14.61 -1.2 13.18 C-1.11 12.22 -1.03 11.25 -0.94 10.25 C-0.85 9.27 -0.76 8.28 -0.66 7.27 C-0.44 4.85 -0.22 2.42 0 0 Z " fill="#5287D7" transform="translate(508,356)"/>
<path d="M0 0 C2.2 3.79 2.11 6.51 1.88 10.78 C2.02 13.33 2.86 14.74 4 17 C4.24 19.26 4.24 19.26 4.31 21.69 C4.7 26.61 6.3 29.62 8.86 33.76 C10.43 36.84 10.69 39.64 10.86 43.05 C10.94 45.22 10.94 45.22 12 48 C12.99 48.33 13.98 48.66 15 49 C15.91 51.51 15.91 51.51 16.62 54.69 C16.86 55.72 17.1 56.76 17.35 57.82 C17.97 60.87 18.51 63.93 19 67 C10.83 60.34 7.71 47.56 4 38 C3.52 36.8 3.52 36.8 3.02 35.58 C-0.2 27.44 -1.32 19.77 -1.19 11.06 C-1.19 10.21 -1.19 9.36 -1.19 8.49 C-1.14 2.28 -1.14 2.28 0 0 Z " fill="#4878D8" transform="translate(6,392)"/>
<path d="M0 0 C0.33 0 0.66 0 1 0 C1.03 2.17 1.05 4.33 1.06 6.5 C1.07 7.71 1.09 8.91 1.1 10.16 C1 14 1 14 0.53 17.31 C-0.31 23.8 -0.36 30.33 -0.53 36.86 C-0.55 37.62 -0.57 38.37 -0.59 39.15 C-1.24 63.56 -1.34 87.98 -1.53 112.39 C-1.58 118.91 -1.64 125.43 -1.69 131.95 C-1.8 144.63 -1.9 157.32 -2 170 C-2.33 170 -2.66 170 -3 170 C-3 117.2 -3 64.4 -3 10 C-2.34 10 -1.68 10 -1 10 C-1.02 8.72 -1.04 7.44 -1.06 6.12 C-1.12 2.25 -1.12 2.25 0 0 Z " fill="#8CA9E0" transform="translate(5,214)"/>
<path d="M0 0 C1.33 0.39 2.67 0.79 4 1.19 C4.93 1.46 5.86 1.73 6.81 2.02 C8.99 2.69 11.16 3.41 13.31 4.17 C25.91 8.5 38.83 10.22 52 12 C52 12.66 52 13.32 52 14 C35.83 14 19.66 14 3 14 C3 13.67 3 13.34 3 13 C5.64 12.67 8.28 12.34 11 12 C11.66 10.35 12.32 8.7 13 7 C12.34 7 11.68 7 11 7 C11 6.34 11 5.68 11 5 C9.93 5.04 8.86 5.08 7.75 5.12 C4.34 5.01 2.79 4.79 0 3 C0 2.01 0 1.02 0 0 Z " fill="#EDF9FD" transform="translate(70,498)"/>
<path d="M0 0 C0.33 0 0.66 0 1 0 C1.24 5.52 0.46 10.14 -1.06 15.44 C-1.29 16.22 -1.51 17.01 -1.74 17.81 C-7.63 37.64 -17.74 55.86 -33 70 C-34.49 70.5 -34.49 70.5 -36 71 C-36.33 71.99 -36.66 72.98 -37 74 C-40.44 77 -40.44 77 -43 77 C-43 76.01 -43 75.02 -43 74 C-41.51 73.5 -41.51 73.5 -40 73 C-39.55 72.38 -39.09 71.76 -38.62 71.12 C-37 69 -37 69 -34.44 67.5 C-31.88 66.22 -31.88 66.22 -30.94 63.88 C-30 62 -30 62 -27.88 61.25 C-27.26 61.17 -26.64 61.08 -26 61 C-25.67 59.35 -25.34 57.7 -25 56 C-24.34 56 -23.68 56 -23 56 C-23.33 54.68 -23.66 53.36 -24 52 C-23.34 52 -22.68 52 -22 52 C-22 51.34 -22 50.68 -22 50 C-20.51 49.5 -20.51 49.5 -19 49 C-18.51 47.02 -18.02 45.04 -17.59 43.04 C-16.75 40.15 -14.88 38.33 -13 36 C-11.82 33.05 -10.88 30.05 -10 27 C-9.34 27 -8.68 27 -8 27 C-8 26.34 -8 25.68 -8 25 C-7.34 25 -6.68 25 -6 25 C-5.96 24.09 -5.96 24.09 -5.92 23.16 C-5.53 17.34 -4.33 12.65 -1.94 7.32 C-0.96 4.89 -0.44 2.58 0 0 Z " fill="#395EAF" transform="translate(506,407)"/>
<path d="M0 0 C0.33 0 0.66 0 1 0 C2.02 11.01 2.32 22.01 2.56 33.06 C2.58 33.99 2.6 34.92 2.63 35.87 C3.05 54.58 3.11 73.29 3 92 C1.02 92.99 1.02 92.99 -1 94 C-1 89.38 -1 84.76 -1 80 C-0.01 79.5 -0.01 79.5 1 79 C1.2 70.82 1.09 62.87 0 54.75 C-2.32 36.72 -1.45 18.08 0 0 Z " fill="#67AAEC" transform="translate(509,192)"/>
<path d="M0 0 C2.39 0.58 4.67 1.22 7 2 C7.14 2.64 7.29 3.28 7.44 3.94 C7.62 4.62 7.81 5.3 8 6 C9.82 7.07 9.82 7.07 12 8 C16.77 10.22 20.3 12.18 24 16 C27.26 17.59 30.43 18.39 34 19 C34 19.66 34 20.32 34 21 C34.66 21 35.32 21 36 21 C36 21.66 36 22.32 36 23 C36.66 23 37.32 23 38 23 C38 23.66 38 24.32 38 25 C42.95 25.99 42.95 25.99 48 27 C48 27.66 48 28.32 48 29 C49.32 29.33 50.64 29.66 52 30 C45.21 32.26 36.05 26.12 29.88 23.12 C18.44 17.19 9.05 10.13 0 1 C0 0.67 0 0.34 0 0 Z " fill="#315EB4" transform="translate(36,473)"/>
<path d="M0 0 C0.33 0 0.66 0 1 0 C1.66 3.3 2.32 6.6 3 10 C2.01 10.33 1.02 10.66 0 11 C0.16 12.06 0.33 13.12 0.5 14.22 C1.22 19.97 1.11 25.71 1.06 31.5 C1.06 32.61 1.05 33.72 1.05 34.86 C1.04 37.57 1.02 40.29 1 43 C1.66 43.33 2.32 43.66 3 44 C2.86 44.86 2.71 45.72 2.56 46.61 C1.29 55 0.82 63.08 0.99 71.56 C1.06 75.53 1.01 79.12 0 83 C-0.33 83 -0.66 83 -1 83 C-1.02 73.51 -1.04 64.01 -1.05 54.52 C-1.06 50.11 -1.06 45.7 -1.08 41.3 C-1.09 37.04 -1.09 32.78 -1.09 28.52 C-1.1 26.9 -1.1 25.28 -1.11 23.66 C-1.13 15.71 -1.13 7.88 0 0 Z " fill="#95BDF3" transform="translate(5,133)"/>
<path d="M0 0 C0.33 0.66 0.66 1.32 1 2 C2.98 2 4.96 2 7 2 C7 2.66 7 3.32 7 4 C7.99 4.33 8.98 4.66 10 5 C10 5.99 10 6.98 10 8 C10.33 8.99 10.66 9.98 11 11 C12.13 11.08 13.27 11.17 14.44 11.25 C18.67 11.77 22.03 13.21 25.86 15.02 C32.77 18.18 40.63 19.34 48 21 C47.67 21.66 47.34 22.32 47 23 C39.21 22.49 31.46 21.35 24 19 C23.67 18.34 23.34 17.68 23 17 C22.01 16.67 21.02 16.34 20 16 C20 15.34 20 14.68 20 14 C18.72 13.86 17.44 13.71 16.12 13.56 C13.74 13.29 12.16 13.08 10 12 C10 11.34 10 10.68 10 10 C9.34 10 8.68 10 8 10 C8 9.34 8 8.68 8 8 C7.34 8 6.68 8 6 8 C6 7.34 6 6.68 6 6 C4.99 6.08 3.98 6.17 2.94 6.25 C-1.9 5.94 -3.99 4.62 -8 2 C-4.91 0.24 -3.77 0 0 0 Z " fill="#355FC2" transform="translate(64,486)"/>
<path d="M0 0 C2 2 2 2 2.2 4.32 C2.16 5.74 2.16 5.74 2.12 7.2 C2.11 8.24 2.09 9.29 2.08 10.37 C2.03 12.56 1.97 14.76 1.92 16.95 C1.76 23.53 1.76 23.53 3.04 29.94 C4.5 34.58 3.75 38.51 2 43 C-0.56 44.81 -0.56 44.81 -3 46 C-3.87 48.25 -3.87 48.25 -4 51 C-4.18 52.44 -4.37 53.88 -4.56 55.31 C-4.71 56.53 -4.85 57.75 -5 59 C-5.33 59 -5.66 59 -6 59 C-6.11 56.42 -6.19 53.84 -6.25 51.25 C-6.3 50.16 -6.3 50.16 -6.35 49.04 C-6.42 45.46 -6.3 43.42 -4.17 40.48 C-2 39 -2 39 1 39 C0.79 37.94 0.79 37.94 0.57 36.86 C-0.9 28.94 -1.27 21.35 -1.19 13.31 C-1.19 12.13 -1.19 10.96 -1.19 9.74 C-1.14 1.14 -1.14 1.14 0 0 Z " fill="#5EA1EC" transform="translate(182,149)"/>
<path d="M0 0 C1.65 0.02 1.65 0.02 3.34 0.04 C4.44 0.04 5.55 0.05 6.69 0.06 C7.54 0.07 8.4 0.09 9.28 0.1 C9.28 0.76 9.28 1.42 9.28 2.1 C5.5 3.25 1.7 3.41 -2.22 3.6 C-3.03 3.64 -3.83 3.68 -4.65 3.72 C-7.68 3.85 -10.7 3.98 -13.72 4.1 C-15.03 4.15 -16.33 4.2 -17.67 4.25 C-38.09 5.04 -58.31 5.15 -78.72 4.1 C-78.72 3.44 -78.72 2.78 -78.72 2.1 C-75.42 1.77 -72.12 1.44 -68.72 1.1 C-68.72 1.76 -68.72 2.42 -68.72 3.1 C-67.96 3.02 -67.19 2.94 -66.4 2.86 C-57.84 2.09 -49.49 2.14 -40.91 2.54 C-39.63 2.59 -38.36 2.64 -37.04 2.69 C-33.93 2.82 -30.83 2.96 -27.72 3.1 C-27.39 2.44 -27.06 1.78 -26.72 1.1 C-26.03 1.1 -25.34 1.11 -24.63 1.11 C-21.51 1.13 -18.4 1.15 -15.29 1.16 C-14.2 1.17 -13.11 1.18 -11.99 1.19 C-10.43 1.19 -10.43 1.19 -8.85 1.2 C-7.89 1.2 -6.93 1.21 -5.95 1.21 C-3.11 1.07 -3.01 0.11 0 0 Z " fill="#3770EE" transform="translate(302.72265625,432.90234375)"/>
<path d="M0 0 C1.22 0.19 2.43 0.37 3.69 0.56 C6.09 0.93 7.83 1.04 10.21 0.51 C13.47 -0.09 16.52 -0.11 19.83 -0.1 C21.12 -0.09 22.42 -0.09 23.75 -0.09 C25.1 -0.08 26.46 -0.07 27.81 -0.06 C29.19 -0.06 30.56 -0.05 31.94 -0.05 C35.29 -0.04 38.65 -0.02 42 0 C41.67 1.32 41.34 2.64 41 4 C38.52 4.03 36.04 4.05 33.56 4.06 C32.86 4.07 32.15 4.08 31.42 4.09 C29.61 4.1 27.81 4.05 26 4 C25.67 3.67 25.34 3.34 25 3 C22.85 3.06 20.7 3.2 18.56 3.38 C16.8 3.51 16.8 3.51 15 3.65 C12.08 3.82 12.08 3.82 10 5 C7.79 4.91 5.58 4.76 3.38 4.56 C2.19 4.46 1 4.36 -0.23 4.25 C-1.14 4.17 -2.06 4.09 -3 4 C-2.01 2.68 -1.02 1.36 0 0 Z " fill="#2363E7" transform="translate(126,504)"/>
<path d="M0 0 C0.33 0.66 0.66 1.32 1 2 C1.66 2 2.32 2 3 2 C3.33 2.66 3.66 3.32 4 4 C5.65 3.67 7.3 3.34 9 3 C8.79 3.58 8.59 4.15 8.38 4.75 C7.77 7 7.77 7 8.94 8.88 C10.33 11.66 10.14 13.93 10 17 C11.32 16.67 12.64 16.34 14 16 C14 16.66 14 17.32 14 18 C14.99 17.67 15.98 17.34 17 17 C17 17.99 17 18.98 17 20 C10.08 20 10.08 20 7.57 17.67 C4 13.52 4 13.52 4 11 C3.4 10.86 2.8 10.71 2.19 10.56 C0.44 10.11 -1.29 9.57 -3 9 C-2.5 5.27 -2.13 3.19 0 0 Z " fill="#3975EA" transform="translate(39,464)"/>
<path d="M0 0 C0.33 0 0.66 0 1 0 C1.46 1.75 1.92 3.5 2.38 5.25 C2.63 6.22 2.89 7.2 3.15 8.2 C5.6 19.15 6.26 29.58 6.12 40.75 C6.11 42.24 6.11 43.72 6.1 45.21 C6.08 48.81 6.04 52.4 6 56 C5.67 56 5.34 56 5 56 C4.59 52.11 4.18 48.22 3.77 44.32 C3.57 42.37 3.36 40.41 3.15 38.45 C2.41 31.27 1.75 24.1 1.26 16.89 C0.99 13.89 0.51 10.97 0 8 C-0.11 5.32 -0.05 2.68 0 0 Z " fill="#85BAE7" transform="translate(504,104)"/>
<path d="M0 0 C-0.99 0.5 -0.99 0.5 -2 1 C9.88 1.66 21.76 2.32 34 3 C34 3.33 34 3.66 34 4 C14.86 4 -4.28 4 -24 4 C-21.77 1.77 -21.02 1.62 -18.01 1.11 C-17.22 0.98 -16.43 0.85 -15.62 0.71 C-14.8 0.58 -13.97 0.45 -13.12 0.31 C-12.31 0.17 -11.49 0.03 -10.65 -0.12 C-9.47 -0.31 -9.47 -0.31 -8.26 -0.51 C-7.18 -0.69 -7.18 -0.69 -6.07 -0.87 C-3.83 -1.01 -2.14 -0.65 0 0 Z " fill="#E5EEF5" transform="translate(414,508)"/>
<path d="M0 0 C0.66 0 1.32 0 2 0 C2 0.66 2 1.32 2 2 C3.24 1.94 4.47 1.88 5.75 1.81 C9.72 1.78 9.72 1.78 12 3.56 C14.47 5.34 15.3 5.07 18.25 4.69 C19.49 4.46 20.72 4.23 22 4 C24 7 24 7 23.62 9.19 C23.32 10.08 23.32 10.08 23 11 C4.74 9.55 4.74 9.55 -1 4 C-0.67 2.68 -0.34 1.36 0 0 Z " fill="#2562D9" transform="translate(89,496)"/>
<path d="M0 0 C0.66 0 1.32 0 2 0 C2.13 5.57 1.74 10.66 0.69 16.12 C0.57 16.8 0.45 17.48 0.33 18.18 C-0.5 22.57 -1.96 26.05 -4 30 C-4.76 32.73 -4.76 32.73 -5.19 35.38 C-5.35 36.25 -5.5 37.12 -5.67 38.02 C-5.83 39 -5.83 39 -6 40 C-6.66 40 -7.32 40 -8 40 C-8 40.66 -8 41.32 -8 42 C-8.66 42 -9.32 42 -10 42 C-10.33 43.98 -10.66 45.96 -11 48 C-11.33 48 -11.66 48 -12 48 C-12.51 41.93 -11.04 38.23 -8 33 C-8.66 32.67 -9.32 32.34 -10 32 C-8.68 32 -7.36 32 -6 32 C-5.95 31.28 -5.9 30.55 -5.85 29.8 C-5.45 24.57 -4.95 19.92 -3 15 C-1.11 10 -0.45 5.28 0 0 Z " fill="#3871DB" transform="translate(506,392)"/>
<path d="M0 0 C0.33 0 0.66 0 1 0 C3.33 7.14 3.31 14.18 3.26 21.62 C3.25 23.73 3.26 25.85 3.27 27.96 C3.28 36.14 2.68 43.97 1 52 C1.66 52.33 2.32 52.66 3 53 C1.06 53.56 1.06 53.56 -1 54 C-1.33 53.67 -1.66 53.34 -2 53 C-1.81 51.2 -1.61 49.39 -1.35 47.59 C-0.43 40.78 0.15 34.12 0.1 27.25 C0.1 26.46 0.09 25.67 0.09 24.86 C0.09 22.39 0.08 19.91 0.06 17.44 C0.06 15.74 0.05 14.05 0.05 12.36 C0.04 8.24 0.02 4.12 0 0 Z " fill="#589EED" transform="translate(338,136)"/>
<path d="M0 0 C0.33 0.66 0.66 1.32 1 2 C3.98 2.75 3.98 2.75 7 3 C7.33 2.67 7.66 2.34 8 2 C9.52 1.93 11.04 1.92 12.56 1.94 C13.39 1.95 14.22 1.96 15.07 1.96 C15.7 1.98 16.34 1.99 17 2 C15 4 15 4 12.38 4.12 C11.59 4.08 10.81 4.04 10 4 C10 4.66 10 5.32 10 6 C7.28 7.36 5.09 7.13 2.06 7.12 C0.47 7.13 0.47 7.13 -1.15 7.13 C-4 7 -4 7 -7 6 C-9.07 6.09 -9.07 6.09 -11.19 6.44 C-12.45 6.62 -13.7 6.81 -15 7 C-15 6.34 -15 5.68 -15 5 C-14.34 5 -13.68 5 -13 5 C-13.33 3.68 -13.66 2.36 -14 1 C-13.32 1.01 -12.65 1.02 -11.95 1.04 C-11.06 1.04 -10.17 1.05 -9.25 1.06 C-8.37 1.07 -7.49 1.09 -6.58 1.1 C-4.22 1.01 -2.26 0.67 0 0 Z " fill="#2362E2" transform="translate(399,500)"/>
<path d="M0 0 C-0.62 1.88 -0.62 1.88 -2 4 C-4.75 5.12 -4.75 5.12 -8 6 C-12.6 7.31 -15.34 8.96 -19 12 C-20.2 12.71 -21.41 13.4 -22.62 14.06 C-25.28 15.58 -27.06 16.71 -29 19 C-29.99 18.67 -30.98 18.34 -32 18 C-31.01 15.69 -30.02 13.38 -29 11 C-27.68 11 -26.36 11 -25 11 C-25 10.34 -25 9.68 -25 9 C-24.34 8.75 -23.67 8.49 -22.99 8.23 C-17.52 6.13 -17.52 6.13 -12.38 3.38 C-8.65 1.22 -4.33 0 0 0 Z " fill="#3F7DEC" transform="translate(152,345)"/>
<path d="M0 0 C2.2 3.79 2.11 6.51 1.88 10.78 C2.02 13.33 2.86 14.74 4 17 C4.24 19.26 4.24 19.26 4.31 21.69 C4.62 25.61 5.37 28.01 7.5 31.31 C10.95 36.84 10.89 42.63 11 49 C9 46 9 46 8.5 42.88 C8.34 41.93 8.17 40.98 8 40 C7.34 39.67 6.68 39.34 6 39 C5.22 36.71 5.22 36.71 4.5 33.81 C3.72 30.75 2.93 27.8 1.88 24.81 C1.11 22.35 0.73 20.23 0.44 17.69 C0.41 14.2 0.41 14.2 -1 13 C-1.1 11.19 -1.13 9.38 -1.12 7.56 C-1.13 6.57 -1.13 5.59 -1.13 4.57 C-1 2 -1 2 0 0 Z " fill="#5685E8" transform="translate(6,392)"/>
<path d="M0 0 C2.31 0.66 4.62 1.32 7 2 C7 2.66 7 3.32 7 4 C7.78 4.19 8.57 4.37 9.38 4.56 C14.43 6.57 18.83 9.51 23 13 C23 13.66 23 14.32 23 15 C23.56 15.23 24.11 15.45 24.69 15.69 C28.63 17.93 31.53 20.39 32.81 24.81 C32.87 25.53 32.94 26.26 33 27 C32.34 27 31.68 27 31 27 C31 25.68 31 24.36 31 23 C30.34 23 29.68 23 29 23 C28.67 22.34 28.34 21.68 28 21 C27.01 20.67 26.02 20.34 25 20 C25 19.34 25 18.68 25 18 C23.68 18 22.36 18 21 18 C20.67 16.68 20.34 15.36 20 14 C18.35 14 16.7 14 15 14 C14 12 14 12 13.29 9.98 C11.44 7.15 9.61 7 6.38 6.25 C5.37 6.01 4.37 5.77 3.34 5.52 C2.57 5.35 1.79 5.18 1 5 C0.67 3.35 0.34 1.7 0 0 Z " fill="#A5D6EC" transform="translate(443,17)"/>
<path d="M0 0 C1.13 3.38 1.06 4.65 0 8 C-1.33 9.33 -2.67 10.67 -4 12 C-4 13.32 -4 14.64 -4 16 C-4.66 16 -5.32 16 -6 16 C-6.04 16.72 -6.08 17.44 -6.12 18.19 C-7.38 22.23 -9.67 23.43 -13 26 C-13.33 26.66 -13.66 27.32 -14 28 C-15.65 27.67 -17.3 27.34 -19 27 C-18.12 25.83 -17.25 24.67 -16.38 23.5 C-15.82 22.76 -15.27 22.03 -14.71 21.27 C-13.65 19.86 -12.59 18.47 -11.51 17.07 C-7.31 11.61 -3.64 5.85 0 0 Z " fill="#E5F4F7" transform="translate(494,448)"/>
<path d="M0 0 C0 0.99 0 1.98 0 3 C-1 4 -2 5 -3 6 C-3.08 6.66 -3.17 7.32 -3.25 8 C-3.5 8.66 -3.75 9.32 -4 10 C-5.71 10.73 -7.43 11.44 -9.18 12.09 C-11.67 13.33 -12.91 15.32 -14.55 17.51 C-18.23 21.3 -23.97 22.85 -29 24 C-28.67 22.68 -28.34 21.36 -28 20 C-26.35 20 -24.7 20 -23 20 C-23 19.34 -23 18.68 -23 18 C-22.11 17.79 -21.23 17.59 -20.31 17.38 C-14.26 14.86 -11.61 9.78 -9 4 C-8.01 4 -7.02 4 -6 4 C-6 3.34 -6 2.68 -6 2 C-4.02 1.34 -2.04 0.68 0 0 Z " fill="#2C6ADC" transform="translate(477,462)"/>
<path d="M0 0 C0.33 0 0.66 0 1 0 C1.24 5.52 0.46 10.14 -1.06 15.44 C-1.28 16.21 -1.5 16.99 -1.73 17.79 C-3.35 23.28 -5.29 28.56 -7.56 33.81 C-7.84 34.46 -8.12 35.11 -8.41 35.78 C-10.16 39.65 -12.22 42.8 -15 46 C-13.84 39.45 -12.27 33.25 -10 27 C-9.34 27 -8.68 27 -8 27 C-8 26.34 -8 25.68 -8 25 C-7.34 25 -6.68 25 -6 25 C-5.97 24.39 -5.95 23.79 -5.92 23.16 C-5.53 17.34 -4.33 12.65 -1.94 7.32 C-0.96 4.89 -0.44 2.58 0 0 Z " fill="#466BB4" transform="translate(506,407)"/>
<path d="M0 0 C13.59 0.7 27.48 3.32 39 11 C36.6 11.86 35.48 12.23 33.12 11.12 C32.42 10.75 31.72 10.38 31 10 C30.07 9.86 29.14 9.71 28.19 9.56 C25 9 25 9 21.5 7.44 C18.19 5.82 18.19 5.82 15.12 6 C10.22 6 4.93 4.75 1.23 1.39 C0.82 0.93 0.42 0.47 0 0 Z " fill="#B3E0F0" transform="translate(404,5)"/>
<path d="M0 0 C0.98 3.19 1.05 5.81 0.75 9.12 C0.68 9.99 0.62 10.86 0.55 11.76 C0 14 0 14 -3 16 C-3.36 17.98 -3.36 17.98 -3.19 20.12 C-3.09 22.04 -3.09 22.04 -3 24 C-3.66 24 -4.32 24 -5 24 C-4.94 24.89 -4.88 25.77 -4.81 26.69 C-5.02 30.36 -5.78 32.1 -8 35 C-8.66 35 -9.32 35 -10 35 C-9.53 32.35 -9.05 29.71 -8.56 27.07 C-8.22 25.2 -7.89 23.34 -7.6 21.46 C-6.3 13.85 -3.45 6.9 0 0 Z " fill="#B8D8EF" transform="translate(15,72)"/>
<path d="M0 0 C4.5 -0.05 9 -0.09 13.51 -0.11 C15.04 -0.12 16.57 -0.13 18.1 -0.15 C20.3 -0.18 22.51 -0.19 24.71 -0.2 C25.39 -0.21 26.08 -0.22 26.78 -0.23 C30.43 -0.23 31.87 -0.09 35 2 C34.34 2.99 33.68 3.98 33 5 C33 4.34 33 3.68 33 3 C31.85 3.19 30.69 3.37 29.5 3.56 C24.79 4.1 20.22 3.92 15.5 3.62 C14.78 3.58 14.06 3.54 13.32 3.49 C8.13 3.13 8.13 3.13 7 2 C4.67 1.63 2.34 1.3 0 1 C0 0.67 0 0.34 0 0 Z " fill="#B0E3F1" transform="translate(368,3)"/>
<path d="M0 0 C0.99 0.5 0.99 0.5 2 1 C2 1.99 2 2.98 2 4 C2.66 4 3.32 4 4 4 C5.21 7.63 5.12 10.95 5.1 14.73 C5.1 15.48 5.09 16.23 5.09 17 C5.09 19.4 5.08 21.79 5.06 24.19 C5.06 25.81 5.05 27.44 5.05 29.06 C5.04 33.04 5.02 37.02 5 41 C4.67 41 4.34 41 4 41 C2.17 27.34 0.54 13.77 0 0 Z " fill="#DFF9FE" transform="translate(507,106)"/>
<path d="M0 0 C0.33 1.32 0.66 2.64 1 4 C2.32 4 3.64 4 5 4 C4.38 9.01 3.73 14.01 3 19 C1.02 19.33 -0.96 19.66 -3 20 C-2.69 16.85 -2.38 13.71 -2.06 10.56 C-1.98 9.66 -1.89 8.77 -1.8 7.84 C-1.71 6.99 -1.62 6.13 -1.54 5.25 C-1.46 4.46 -1.38 3.67 -1.3 2.86 C-1 1 -1 1 0 0 Z " fill="#2862E0" transform="translate(411,396)"/>
<path d="M0 0 C2.38 0.14 4.75 0.29 7.12 0.44 C7.79 0.48 8.46 0.52 9.14 0.56 C13.15 0.81 17.05 1.27 21 2 C21 2.66 21 3.32 21 4 C8.13 4 -4.74 4 -18 4 C-18 3.67 -18 3.34 -18 3 C-9.09 2.01 -9.09 2.01 0 1 C0 0.67 0 0.34 0 0 Z " fill="#AFBFEF" transform="translate(101,508)"/>
<path d="M0 0 C-5.14 2.92 -10.86 3.28 -16.62 4.12 C-17.83 4.3 -19.03 4.48 -20.27 4.67 C-29.92 6.02 -39.28 6.46 -49 6 C-49 5.67 -49 5.34 -49 5 C-36.46 3.68 -23.92 2.36 -11 1 C-11 0.34 -11 -0.32 -11 -1 C-6.71 -2.26 -4.12 -1.63 0 0 Z " fill="#2963C7" transform="translate(420,505)"/>
<path d="M0 0 C0.99 0 1.98 0 3 0 C2.86 2.67 2.71 5.33 2.56 8 C2.5 9.12 2.5 9.12 2.44 10.25 C2.16 15.21 1.65 20.08 1 25 C0.8 26.83 0.62 28.67 0.44 30.5 C0.35 31.36 0.27 32.21 0.18 33.09 C0.12 33.72 0.06 34.35 0 35 C-0.33 35 -0.66 35 -1 35 C-3.25 23.37 -2.21 11.55 0 0 Z " fill="#AECDEC" transform="translate(5,107)"/>
<path d="M0 0 C12.91 -0.35 24.74 0.85 37 5 C36.67 5.99 36.34 6.98 36 8 C35.31 7.7 34.62 7.41 33.91 7.1 C25.13 3.77 16.18 2.64 6.84 2.99 C4.07 3 1.68 2.64 -1 2 C-0.67 1.34 -0.34 0.68 0 0 Z " fill="#6CB4EC" transform="translate(253,87)"/>
<path d="M0 0 C-0.45 2.44 -1.07 4.12 -2.38 6.25 C-4.42 9.72 -5.65 13.21 -7 17 C-8.98 16.67 -10.96 16.34 -13 16 C-11.94 13.8 -10.83 11.71 -9.56 9.62 C-7.91 6.95 -7.91 6.95 -6.5 3.75 C-4.74 0.52 -3.66 0 0 0 Z " fill="#306CDF" transform="translate(494,440)"/>
<path d="M0 0 C0.66 0 1.32 0 2 0 C2.05 0.98 2.1 1.96 2.15 2.97 C2.66 12.4 3.62 21.66 5 31 C4.34 30.67 3.68 30.34 3 30 C3 28.68 3 27.36 3 26 C2.34 26 1.68 26 1 26 C-0.73 21.51 -1.25 17.81 -1.19 13 C-1.18 11.82 -1.17 10.65 -1.17 9.44 C-1.01 6.21 -0.6 3.17 0 0 Z " fill="#E2F2FC" transform="translate(1,384)"/>
<path d="M0 0 C0.99 0.33 1.98 0.66 3 1 C2.01 2.32 1.02 3.64 0 5 C0.33 5.66 0.66 6.32 1 7 C-0.22 6.86 -1.43 6.71 -2.69 6.56 C-4.91 6.45 -4.91 6.45 -7 7 C-8.4 8.55 -8.4 8.55 -9.44 10.5 C-10.57 12.44 -10.57 12.44 -12 14 C-15.08 14.62 -17.9 14.43 -21 14 C-21.33 13.34 -21.66 12.68 -22 12 C-21.37 11.67 -20.74 11.34 -20.09 11.01 C-17.25 9.53 -14.4 8.04 -11.56 6.56 C-10.57 6.05 -9.58 5.53 -8.55 5 C-7.61 4.5 -6.66 4.01 -5.69 3.5 C-4.82 3.05 -3.94 2.59 -3.04 2.12 C-1.07 1.16 -1.07 1.16 0 0 Z " fill="#D5E9F6" transform="translate(458,488)"/>
<path d="M0 0 C0.66 0.33 1.32 0.66 2 1 C1.65 1.91 1.3 2.81 0.94 3.75 C-0.26 6.81 -0.26 6.81 0.62 9.06 C0.75 9.7 0.87 10.34 1 11 C-0.28 12.71 -1.62 14.37 -3 16 C-3.74 17.97 -3.74 17.97 -4 20 C-4.59 23.35 -5.34 26.02 -7 29 C-9.56 21.33 -6.02 12.13 -3 5 C-2.34 5 -1.68 5 -1 5 C-0.67 3.35 -0.34 1.7 0 0 Z " fill="#356DE7" transform="translate(111,373)"/>
<path d="M0 0 C0.33 0 0.66 0 1 0 C1 11.88 1 23.76 1 36 C-0.32 36.66 -1.64 37.32 -3 38 C-3 33.38 -3 28.76 -3 24 C-2.34 23.67 -1.68 23.34 -1 23 C-0.67 15.41 -0.34 7.82 0 0 Z " fill="#68B2FE" transform="translate(511,248)"/>
<path d="M0 0 C0.66 1.32 1.32 2.64 2 4 C0.86 5.08 0.86 5.08 -0.31 6.19 C-2.73 8.72 -4.32 10.96 -6 14 C-6.99 15.49 -6.99 15.49 -8 17 C-8.29 17.64 -8.58 18.28 -8.88 18.94 C-10.23 21.42 -11.95 23.08 -14 25 C-13.49 15.35 -5.85 7.16 0 0 Z M-15 25 C-14.34 25.33 -13.68 25.66 -13 26 C-13.57 28.87 -13.86 29.86 -16 32 C-15.67 29.69 -15.34 27.38 -15 25 Z " fill="#6AADEC" transform="translate(198,115)"/>
<path d="M0 0 C2.39 0.58 4.67 1.22 7 2 C7.14 2.64 7.29 3.28 7.44 3.94 C7.62 4.62 7.81 5.3 8 6 C9.82 7.07 9.82 7.07 12 8 C13.38 8.64 14.75 9.29 16.12 9.94 C16.81 10.26 17.49 10.57 18.2 10.9 C20 12 20 12 22 15 C21.67 15.99 21.34 16.98 21 18 C15.3 14.59 10.31 10.67 5.44 6.19 C4.9 5.7 4.36 5.2 3.81 4.7 C2.52 3.49 1.26 2.25 0 1 C0 0.67 0 0.34 0 0 Z " fill="#2E5BB6" transform="translate(36,473)"/>
<path d="M0 0 C0.66 0.33 1.32 0.66 2 1 C1.33 4.81 0.22 8.33 -1 12 C-1.19 13.36 -1.19 13.36 -1.38 14.75 C-2 17 -2 17 -3.88 18.31 C-6 19 -6 19 -9 19 C-7.39 14.76 -5.42 10.73 -3.38 6.69 C-3.05 6.04 -2.73 5.4 -2.39 4.73 C-1.6 3.15 -0.8 1.58 0 0 Z " fill="#3F82EB" transform="translate(216,298)"/>
<path d="M0 0 C0.33 1.32 0.66 2.64 1 4 C1.99 4 2.98 4 4 4 C5.69 6 5.69 6 7 8 C6.34 8 5.68 8 5 8 C5.64 13.91 7.19 19.34 9 25 C8.34 25 7.68 25 7 25 C2.53 16.67 -0.4 9.57 0 0 Z " fill="#5694ED" transform="translate(177,209)"/>
<path d="M0 0 C0.66 0 1.32 0 2 0 C2.66 0.99 3.32 1.98 4 3 C4.68 3.31 5.36 3.62 6.06 3.94 C8 5 8 5 8.75 7.12 C8.87 8.05 8.87 8.05 9 9 C9.33 9 9.66 9 10 9 C10 12.3 10 15.6 10 19 C9.34 19.33 8.68 19.66 8 20 C7.34 22.53 7.34 22.53 7 25 C6.34 24.67 5.68 24.34 5 24 C5.06 22.84 5.12 21.68 5.18 20.49 C5.22 18.95 5.27 17.41 5.31 15.88 C5.35 15.11 5.4 14.35 5.44 13.57 C5.53 9.32 5.28 6.81 2.48 3.51 C1.66 2.68 0.84 1.85 0 1 C0 0.67 0 0.34 0 0 Z " fill="#3F80E7" transform="translate(212,272)"/>
<path d="M0 0 C0.66 0 1.32 0 2 0 C1.67 0.66 1.34 1.32 1 2 C0.67 1.34 0.34 0.68 0 0 Z M-8 0 C-7.67 0.66 -7.34 1.32 -7 2 C-5.08 1.97 -5.08 1.97 -3.12 1.94 C0.75 1.88 0.75 1.88 3 3 C3 3.66 3 4.32 3 5 C-9.87 4.5 -9.87 4.5 -23 4 C-23 3.34 -23 2.68 -23 2 C-18.05 1.34 -13.1 0.68 -8 0 Z " fill="#1F60E9" transform="translate(343,504)"/>
<path d="M0 0 C0.33 0.66 0.66 1.32 1 2 C2.98 2 4.96 2 7 2 C7 2.66 7 3.32 7 4 C7.99 4.33 8.98 4.66 10 5 C10 7 10 9 10 11 C9.34 10.67 8.68 10.34 8 10 C8 9.34 8 8.68 8 8 C7.34 8 6.68 8 6 8 C6 7.34 6 6.68 6 6 C4.99 6.08 3.98 6.17 2.94 6.25 C-1.9 5.94 -3.99 4.62 -8 2 C-4.91 0.24 -3.77 0 0 0 Z " fill="#2963D7" transform="translate(64,486)"/>
<path d="M0 0 C6.08 9.11 8.29 22.26 8 33 C5.61 29.17 5.44 25.4 5 21 C4.34 21 3.68 21 3 21 C2.93 19.9 2.93 19.9 2.85 18.77 C2.78 17.79 2.7 16.82 2.62 15.81 C2.56 14.85 2.49 13.89 2.41 12.89 C2 9.98 1.13 7.7 0 5 C-0.12 2.19 -0.12 2.19 0 0 Z " fill="#96C0E1" transform="translate(500,83)"/>
<path d="M0 0 C4.7 1.39 9.38 2.8 14.05 4.28 C14.75 4.5 15.46 4.72 16.18 4.95 C17.58 5.39 18.98 5.84 20.38 6.29 C23.9 7.4 27.36 8.37 31 9 C28 11 28 11 26.1 10.86 C25.4 10.68 24.71 10.5 23.99 10.32 C23.23 10.13 22.47 9.95 21.69 9.75 C20.51 9.44 20.51 9.44 19.31 9.12 C18.52 8.93 17.72 8.73 16.9 8.52 C14.93 8.02 12.96 7.51 11 7 C11 6.34 11 5.68 11 5 C9.93 5.04 8.86 5.08 7.75 5.12 C4.34 5.01 2.79 4.79 0 3 C0 2.01 0 1.02 0 0 Z " fill="#CAE0F9" transform="translate(70,498)"/>
<path d="M0 0 C0.99 0.5 0.99 0.5 2 1 C2.53 2.86 2.53 2.86 2.94 5.31 C4.15 11.98 5.64 18.63 7.65 25.1 C8.06 27.35 7.69 28.85 7 31 C-0.4 11.13 -0.4 11.13 0 0 Z " fill="#5A7FC9" transform="translate(5,405)"/>
<path d="M0 0 C-0.33 0.66 -0.66 1.32 -1 2 C1.48 2.5 1.48 2.5 4 3 C4 3.33 4 3.66 4 4 C-3.92 4 -11.84 4 -20 4 C-15.23 -0.77 -6.38 -0.24 0 0 Z " fill="#ADCEF4" transform="translate(410,508)"/>
<path d="M0 0 C3.25 3.08 5.9 6.4 8.56 10 C9.33 11.03 10.09 12.06 10.88 13.12 C11.93 14.55 11.93 14.55 13 16 C14 17.33 15 18.67 16 20 C13.75 19.88 13.75 19.88 11 19 C9.61 17.04 8.28 15.04 7 13 C6.13 12.4 5.27 11.8 4.38 11.19 C0.93 8.01 0.65 4.51 0 0 Z " fill="#D2E9F9" transform="translate(22,456)"/>
<path d="M0 0 C6.9 6.9 7.84 15.66 8 25 C6 22 6 22 5.5 18.88 C5.25 17.45 5.25 17.45 5 16 C4.34 15.67 3.68 15.34 3 15 C2.15 12.64 2.15 12.64 1.38 9.69 C1.11 8.72 0.85 7.76 0.59 6.76 C0 4 0 4 0 0 Z " fill="#477BE7" transform="translate(9,416)"/>
<path d="M0 0 C7.62 1.25 13.39 4.07 20 8 C19.34 8.66 18.68 9.32 18 10 C15.38 9.62 15.38 9.62 13 9 C13 8.01 13 7.02 13 6 C11.17 6.19 11.17 6.19 9.31 6.38 C6.65 6.4 5.44 6.36 3.36 4.66 C2 3 2 3 0 0 Z " fill="#3679E5" transform="translate(323,322)"/>
<path d="M0 0 C2 2 2 2 2.23 5.66 C2.23 7.13 2.21 8.6 2.19 10.06 C2.19 10.81 2.19 11.55 2.19 12.32 C2.14 17.86 2.14 17.86 1 19 C0.77 20.35 0.59 21.7 0.44 23.06 C0.29 24.36 0.15 25.66 0 27 C-0.33 27 -0.66 27 -1 27 C-1.03 22.69 -1.05 18.38 -1.06 14.06 C-1.07 12.83 -1.08 11.6 -1.09 10.33 C-1.09 9.16 -1.09 7.99 -1.1 6.79 C-1.1 5.7 -1.11 4.62 -1.11 3.5 C-1 1 -1 1 0 0 Z " fill="#64A7EC" transform="translate(182,149)"/>
<path d="M0 0 C-1 2 -1 2 -3.07 2.85 C-4.3 3.23 -4.3 3.23 -5.56 3.62 C-6.8 4.02 -6.8 4.02 -8.07 4.41 C-8.7 4.61 -9.34 4.8 -10 5 C-10 5.66 -10 6.32 -10 7 C-11.11 6.98 -12.23 6.96 -13.38 6.94 C-16.83 6.74 -16.83 6.74 -19 8 C-19.66 7.34 -20.32 6.68 -21 6 C-7.22 -0.44 -7.22 -0.44 0 0 Z " fill="#6CB7EE" transform="translate(250,88)"/>
<path d="M0 0 C0.33 0 0.66 0 1 0 C1.66 3.3 2.32 6.6 3 10 C2.01 10.33 1.02 10.66 0 11 C0 21.56 0 32.12 0 43 C-0.33 43 -0.66 43 -1 43 C-1.02 38.32 -1.04 33.65 -1.05 28.97 C-1.06 27.38 -1.07 25.79 -1.08 24.21 C-1.16 7.97 -1.16 7.97 0 0 Z " fill="#A1C6F4" transform="translate(5,133)"/>
<path d="M0 0 C0.33 0 0.66 0 1 0 C1.18 1 1.36 2 1.55 3.04 C1.8 4.38 2.06 5.72 2.31 7.06 C2.43 7.72 2.55 8.38 2.67 9.05 C3.85 15.18 6.12 20.47 9 26 C6.69 25.5 6.69 25.5 4 24 C0.7 17.51 -0.41 10.22 -1 3 C-0.67 2.01 -0.34 1.02 0 0 Z " fill="#397CE7" transform="translate(302,286)"/>
<path d="M0 0 C1.45 0.03 1.45 0.03 2.94 0.06 C3.06 0.7 3.19 1.34 3.31 2 C3.62 3.02 3.62 3.02 3.94 4.06 C4.6 4.39 5.26 4.72 5.94 5.06 C2.43 6.67 -0.21 7.28 -4.06 7.06 C-4.11 5.06 -4.1 3.06 -4.06 1.06 C-3.06 0.06 -3.06 0.06 0 0 Z M-3.06 2.06 C-2.06 4.06 -2.06 4.06 -2.06 4.06 Z " fill="#235ACD" transform="translate(428.0625,493.9375)"/>
<path d="M0 0 C1.54 4.68 -0.04 7.68 -2 12 C-3.56 15 -3.56 15 -5 17 C-5.66 17 -6.32 17 -7 17 C-7.66 17.66 -8.32 18.32 -9 19 C-9.33 17.68 -9.66 16.36 -10 15 C-9.34 15 -8.68 15 -8 15 C-8 14.34 -8 13.68 -8 13 C-7.01 12.67 -6.02 12.34 -5 12 C-4.48 10.01 -3.96 8.02 -3.54 6.01 C-2.87 3.53 -1.73 1.89 0 0 Z " fill="#3460BE" transform="translate(492,444)"/>
<path d="M0 0 C7.43 -0.14 7.43 -0.14 11 1 C11 1.99 11 2.98 11 4 C12.98 4 14.96 4 17 4 C17.33 4.66 17.66 5.32 18 6 C11.59 6.43 6.11 4.86 0 3 C0 2.01 0 1.02 0 0 Z " fill="#447AF3" transform="translate(123,420)"/>
<path d="M0 0 C0 0.99 0 1.98 0 3 C-1.46 4.28 -1.46 4.28 -3.38 5.5 C-6.11 7.26 -7.12 8.17 -9 11 C-11.5 11.62 -11.5 11.62 -14 12 C-14.99 12.5 -14.99 12.5 -16 13 C-14.51 9.21 -12.46 7.62 -9.12 5.38 C-8.26 4.78 -7.4 4.19 -6.51 3.59 C-4.38 2.24 -2.28 1.07 0 0 Z " fill="#6DB0EB" transform="translate(216,101)"/>
<path d="M0 0 C0.33 0 0.66 0 1 0 C1.33 2.97 1.66 5.94 2 9 C0.02 9.66 -1.96 10.32 -4 11 C-4.33 8.03 -4.66 5.06 -5 2 C-4.34 1.67 -3.68 1.34 -3 1 C-3 2.32 -3 3.64 -3 5 C-2.34 5 -1.68 5 -1 5 C-0.67 3.35 -0.34 1.7 0 0 Z " fill="#89C6FD" transform="translate(181,179)"/>
<path d="M0 0 C0.33 0 0.66 0 1 0 C1.11 6.77 0.88 13.29 0 20 C0.66 20.33 1.32 20.66 2 21 C0.06 21.56 0.06 21.56 -2 22 C-2.33 21.67 -2.66 21.34 -3 21 C-2.32 13.96 -1.1 6.98 0 0 Z " fill="#5095EE" transform="translate(339,168)"/>
<path d="M0 0 C-2.83 1.57 -5.12 2.31 -8.33 2.63 C-9.53 2.76 -9.53 2.76 -10.75 2.89 C-11.99 3 -11.99 3 -13.25 3.12 C-14.09 3.21 -14.93 3.3 -15.8 3.39 C-17.86 3.6 -19.93 3.8 -22 4 C-21.67 3.34 -21.34 2.68 -21 2 C-18.71 1.59 -18.71 1.59 -15.94 1.38 C-15.02 1.3 -14.1 1.23 -13.15 1.15 C-12.44 1.1 -11.73 1.05 -11 1 C-11 0.34 -11 -0.32 -11 -1 C-6.71 -2.26 -4.12 -1.63 0 0 Z " fill="#3961BD" transform="translate(420,505)"/>
<path d="M0 0 C4.69 3.39 9.03 6.78 13 11 C6.61 10.84 3.34 7.22 -1 3 C-0.67 2.01 -0.34 1.02 0 0 Z " fill="#D9EEFA" transform="translate(38,476)"/>
<path d="M0 0 C1.22 2.89 1.02 3.95 -0.12 6.94 C-2.11 10.18 -4.1 12.54 -7 15 C-7.99 15 -8.98 15 -10 15 C-10 14.34 -10 13.68 -10 13 C-6.54 10 -6.54 10 -4 10 C-3.67 8.02 -3.34 6.04 -3 4 C-2.34 4 -1.68 4 -1 4 C-0.67 2.68 -0.34 1.36 0 0 Z " fill="#3B81EA" transform="translate(317,257)"/>
<path d="M0 0 C0.59 1.9 0.59 1.9 1 4 C-0.38 5.62 -0.38 5.62 -2 7 C-2.33 7.66 -2.66 8.32 -3 9 C-4.98 9.72 -6.99 10.38 -9 11 C-10.67 11.65 -12.34 12.32 -14 13 C-9.56 8.41 -4.8 4.21 0 0 Z " fill="#D1E4F6" transform="translate(474,475)"/>
<path d="M0 0 C1.16 3.49 1.18 4.54 0 8 C-2.58 11.66 -4.69 14.56 -9 16 C-7.57 12.04 -5.67 8.71 -3.38 5.19 C-2.74 4.21 -2.11 3.24 -1.46 2.23 C-0.74 1.13 -0.74 1.13 0 0 Z " fill="#D8EAF9" transform="translate(494,448)"/>
<path d="M0 0 C0.83 0.05 1.66 0.1 2.52 0.16 C4.56 0.29 6.59 0.42 8.62 0.56 C8.62 0.89 8.62 1.22 8.62 1.56 C3.01 1.56 -2.59 1.56 -8.38 1.56 C-8.38 2.22 -8.38 2.88 -8.38 3.56 C-11.01 3.56 -13.66 3.56 -16.38 3.56 C-16.04 2.57 -15.72 1.58 -15.38 0.56 C-10.12 -0.58 -5.31 -0.37 0 0 Z " fill="#BDEFFA" transform="translate(232.375,2.4375)"/>
<path d="M0 0 C6.64 0.42 12.21 1.57 18 5 C18.33 5.66 18.66 6.32 19 7 C13.38 7.25 13.38 7.25 10 5 C10 4.34 10 3.68 10 3 C8.08 2.81 8.08 2.81 6.12 2.62 C2.25 2.25 2.25 2.25 0 0 Z " fill="#2158C5" transform="translate(74,497)"/>
<path d="M0 0 C-3.86 4.82 -3.86 4.82 -7.11 5.33 C-9.08 5.31 -11.04 5.17 -13 5 C-13.33 4.34 -13.66 3.68 -14 3 C-4.45 -2.23 -4.45 -2.23 0 0 Z " fill="#F4FCFD" transform="translate(450,497)"/>
<path d="M0 0 C-1.82 4.67 -1.82 4.67 -3.03 6.84 C-4.17 9.37 -4.41 11.49 -4.62 14.25 C-4.7 15.14 -4.77 16.03 -4.85 16.95 C-4.9 17.63 -4.95 18.3 -5 19 C-5.33 19 -5.66 19 -6 19 C-6.08 16.4 -6.14 13.79 -6.19 11.19 C-6.23 10.08 -6.23 10.08 -6.26 8.95 C-6.34 3.51 -6.34 3.51 -4.68 0.99 C-3 0 -3 0 0 0 Z " fill="#5696EA" transform="translate(182,189)"/>
<path d="M0 0 C1.98 0.66 3.96 1.32 6 2 C6 3.32 6 4.64 6 6 C7.32 5.67 8.64 5.34 10 5 C10 5.66 10 6.32 10 7 C10.99 6.67 11.98 6.34 13 6 C13 6.99 13 7.98 13 9 C6.08 9 6.08 9 3.57 6.67 C0 2.52 0 2.52 0 0 Z " fill="#2C64D4" transform="translate(43,475)"/>
<path d="M0 0 C0.08 2.12 0.14 4.25 0.19 6.38 C0.22 7.56 0.26 8.74 0.29 9.96 C0.2 10.96 0.1 11.97 0 13 C-1.49 13.99 -1.49 13.99 -3 15 C-3 10.38 -3 5.76 -3 1 C-1 0 -1 0 0 0 Z " fill="#5AA0F3" transform="translate(511,271)"/>
<path d="M0 0 C3.74 4.3 7 10.25 7 16 C6.01 16 5.02 16 4 16 C3.71 15.03 3.42 14.06 3.12 13.06 C2.36 9.89 2.36 9.89 0 9 C0 6.03 0 3.06 0 0 Z " fill="#D8EAFA" transform="translate(13,438)"/>
<path d="M0 0 C0.66 0 1.32 0 2 0 C2 0.66 2 1.32 2 2 C2.66 2 3.32 2 4 2 C6.25 6.5 6.17 10.08 6 15 C5.67 15 5.34 15 5 15 C5 13.35 5 11.7 5 10 C4.34 10 3.68 10 3 10 C2 8 2 8 1.56 5.94 C1.28 4.98 1.28 4.98 1 4 C0.34 3.67 -0.32 3.34 -1 3 C-0.67 2.01 -0.34 1.02 0 0 Z " fill="#83C4F5" transform="translate(497,86)"/>
<path d="M0 0 C1.67 1.67 3.33 3.33 5 5 C5.84 5.74 5.84 5.74 6.69 6.5 C9.2 9.38 10 12.23 10 16 C9.34 16 8.68 16 8 16 C7.88 14.33 7.88 14.33 7.75 12.62 C7.42 8.94 7.42 8.94 4.94 7.56 C4.3 7.38 3.66 7.19 3 7 C3 6.34 3 5.68 3 5 C2.34 5 1.68 5 1 5 C0.67 5.66 0.34 6.32 0 7 C0 4.69 0 2.38 0 0 Z " fill="#5DA7EB" transform="translate(328,120)"/>
<path d="M0 0 C0.33 0 0.66 0 1 0 C1 7.92 1 15.84 1 24 C0.67 24 0.34 24 0 24 C-0.22 22.39 -0.22 22.39 -0.44 20.75 C-0.85 17.29 -0.85 17.29 -1.59 15.19 C-2.17 12.06 -1.59 9.37 -1.06 6.25 C-0.87 5.08 -0.67 3.91 -0.47 2.7 C-0.32 1.81 -0.16 0.92 0 0 Z " fill="#4284EE" transform="translate(507,368)"/>
<path d="M0 0 C-4.42 4.27 -9.2 5.51 -15 7 C-14 4 -14 4 -11.6 2.58 C-10.62 2.14 -9.64 1.7 -8.62 1.25 C-7.65 0.8 -6.67 0.35 -5.66 -0.11 C-3 -1 -3 -1 0 0 Z " fill="#3C7CEB" transform="translate(195,327)"/>
<path d="M0 0 C-2.36 2.53 -3.66 3.89 -7 5 C-8.21 7 -8.21 7 -9 9 C-9.66 8.67 -10.32 8.34 -11 8 C-11 6.68 -11 5.36 -11 4 C-7.35 0.95 -4.79 -0.56 0 0 Z " fill="#F5FAF5" transform="translate(471,484)"/>
<path d="M0 0 C1.75 0.06 1.75 0.06 4 1 C5.16 2.71 6.07 4.45 6.97 6.31 C8.04 8.33 8.04 8.33 11 10 C10.67 11.32 10.34 12.64 10 14 C8.52 12.23 7.04 10.46 5.56 8.69 C4.74 7.7 3.92 6.72 3.07 5.7 C1 3 1 3 0 0 Z " fill="#4970BA" transform="translate(25,459)"/>
<path d="M0 0 C0.99 0.33 1.98 0.66 3 1 C3.04 3 3.04 5 3 7 C2.67 7.33 2.34 7.66 2 8 C1.77 10.18 1.59 12.37 1.44 14.56 C1.35 15.76 1.27 16.96 1.18 18.19 C1.12 19.12 1.06 20.05 1 21 C0.67 21 0.34 21 0 21 C0 14.07 0 7.14 0 0 Z " fill="#6D9AF6" transform="translate(4,328)"/>
<path d="M0 0 C0.99 0.33 1.98 0.66 3 1 C4.1 3.43 4.1 3.43 5.06 6.44 C6.35 10.63 6.35 10.63 9 14 C8.62 16.12 8.62 16.12 8 18 C5.56 15.56 4.74 13.31 3.44 10.12 C3 9.08 2.57 8.03 2.12 6.95 C1.24 4.62 0.52 2.42 0 0 Z " fill="#E6FAFE" transform="translate(494,64)"/>
<path d="M0 0 C-2 3 -2 3 -4.43 3.73 C-5.85 3.96 -5.85 3.96 -7.31 4.19 C-8.26 4.35 -9.2 4.5 -10.18 4.67 C-12.82 4.98 -15.34 5.06 -18 5 C-14.73 3.25 -11.39 2.01 -7.88 0.81 C-6.82 0.45 -5.77 0.08 -4.68 -0.29 C-2 -1 -2 -1 0 0 Z " fill="#CADEF6" transform="translate(434,502)"/>
<path d="M0 0 C2 1 2 1 2 1 Z M-0.81 1.38 C0.12 1.58 1.04 1.79 2 2 C-0.35 4.72 -2.62 5.81 -6 7 C-6.33 5.68 -6.66 4.36 -7 3 C-4 1 -4 1 -0.81 1.38 Z " fill="#3A7AEB" transform="translate(166,338)"/>
<path d="M0 0 C0.66 0 1.32 0 2 0 C2.74 1.94 3.47 3.89 4.2 5.84 C4.87 7.65 5.56 9.45 6.25 11.25 C7.01 14.05 7.03 15.33 6 18 C5.67 16.02 5.34 14.04 5 12 C4.34 12 3.68 12 3 12 C2.01 8.04 1.02 4.08 0 0 Z " fill="#4E8EEC" transform="translate(195,240)"/>
<path d="M0 0 C-1.44 3.36 -3.25 5.59 -6 8 C-6.66 8 -7.32 8 -8 8 C-8.33 9.65 -8.66 11.3 -9 13 C-9.66 13 -10.32 13 -11 13 C-9.64 7.79 -7.6 4.87 -4 1 C-2 0 -2 0 0 0 Z " fill="#427DEC" transform="translate(119,365)"/>
<path d="M0 0 C0.99 0 1.98 0 3 0 C3.33 1.32 3.66 2.64 4 4 C4.66 4 5.32 4 6 4 C6 4.99 6 5.98 6 7 C3.61 6.42 1.33 5.78 -1 5 C-0.67 3.35 -0.34 1.7 0 0 Z " fill="#3065D8" transform="translate(37,468)"/>
<path d="M0 0 C1.62 0.04 1.62 0.04 3.27 0.08 C4.09 0.12 4.91 0.15 5.75 0.19 C3.02 2.92 0.98 3.14 -2.83 3.29 C-3.71 3.27 -4.59 3.26 -5.5 3.25 C-6.39 3.24 -7.28 3.23 -8.2 3.22 C-8.88 3.21 -9.55 3.2 -10.25 3.19 C-6.86 0.06 -4.54 -0.15 0 0 Z " fill="#346BE9" transform="translate(350.25,427.8125)"/>
<path d="M0 0 C2.02 0.09 4.05 0.25 6.06 0.44 C7.72 0.59 7.72 0.59 9.41 0.75 C10.26 0.83 11.12 0.91 12 1 C12 1.66 12 2.32 12 3 C10.4 3.05 8.79 3.09 7.19 3.12 C6.29 3.15 5.4 3.17 4.48 3.2 C2 3 2 3 -1 1 C-0.67 0.67 -0.34 0.34 0 0 Z " fill="#8CB3F8" transform="translate(110,509)"/>
<path d="M0 0 C1.32 0.33 2.64 0.66 4 1 C4 1.99 4 2.98 4 4 C3.01 4.33 2.02 4.66 1 5 C1 4.34 1 3.68 1 3 C0.01 3.5 0.01 3.5 -1 4 C-3.67 4.13 -6.32 4.04 -9 4 C-8.36 3.88 -7.72 3.75 -7.06 3.62 C-6.04 3.32 -6.04 3.32 -5 3 C-4.67 2.34 -4.34 1.68 -4 1 C-2.68 1.33 -1.36 1.66 0 2 C0 1.34 0 0.68 0 0 Z " fill="#3871ED" transform="translate(367,424)"/>
<path d="M0 0 C0.99 0 1.98 0 3 0 C2.38 5.01 1.73 10.01 1 15 C0.01 15.33 -0.98 15.66 -2 16 C-2.33 15.34 -2.66 14.68 -3 14 C-2.01 14 -1.02 14 0 14 C0 9.38 0 4.76 0 0 Z " fill="#4682F4" transform="translate(413,400)"/>
<path d="M0 0 C1.58 0.11 3.17 0.24 4.75 0.38 C6.07 0.48 6.07 0.48 7.42 0.59 C10 1 10 1 14 3 C9.05 3 4.1 3 -1 3 C-0.67 2.01 -0.34 1.02 0 0 Z " fill="#1C53C5" transform="translate(112,506)"/>
<path d="M0 0 C2 1.81 2 1.81 4 4 C4 4.99 4 5.98 4 7 C4.66 7 5.32 7 6 7 C6 7.66 6 8.32 6 9 C6.66 9 7.32 9 8 9 C7.67 9.99 7.34 10.98 7 12 C1.33 6.63 1.33 6.63 0 3 C0 2.01 0 1.02 0 0 Z " fill="#316AD7" transform="translate(28,457)"/>
<path d="M0 0 C3.96 0.33 7.92 0.66 12 1 C12 1.66 12 2.32 12 3 C8.37 3 4.74 3 1 3 C0.67 2.01 0.34 1.02 0 0 Z " fill="#2A61E0" transform="translate(207,432)"/>
<path d="M0 0 C2.5 2.31 2.5 2.31 5 5 C5 5.99 5 6.98 5 8 C5.66 8 6.32 8 7 8 C7 9.65 7 11.3 7 13 C0 4.55 0 4.55 0 0 Z " fill="#4284E4" transform="translate(202,256)"/>
<path d="M0 0 C-4.42 4.27 -9.2 5.51 -15 7 C-13 4 -13 4 -9.88 3.31 C-8.93 3.21 -7.98 3.11 -7 3 C-7 2.34 -7 1.68 -7 1 C-4.54 -0.23 -2.72 -0.07 0 0 Z " fill="#E5FAFE" transform="translate(77,12)"/>
<path d="M0 0 C1.42 0.08 2.84 0.18 4.25 0.31 C2.25 2.31 2.25 2.31 -0.38 2.44 C-1.16 2.4 -1.94 2.36 -2.75 2.31 C-2.75 2.97 -2.75 3.63 -2.75 4.31 C-4.73 4.64 -6.71 4.97 -8.75 5.31 C-6.33 1.11 -4.74 -0.04 0 0 Z " fill="#2159D1" transform="translate(411.75,501.6875)"/>
<path d="M0 0 C0.99 0 1.98 0 3 0 C3.66 0.99 4.32 1.98 5 3 C4.07 6.11 2.81 8.29 1 11 C0.67 7.37 0.34 3.74 0 0 Z " fill="#5390FA" transform="translate(411,389)"/>
<path d="M0 0 C1.32 0.33 2.64 0.66 4 1 C3.01 1.5 3.01 1.5 2 2 C5.3 2.66 8.6 3.32 12 4 C12 4.33 12 4.66 12 5 C6.21 5.21 1.57 4.59 -4 3 C-2.68 2.67 -1.36 2.34 0 2 C0 1.34 0 0.68 0 0 Z " fill="#D1E7FB" transform="translate(410,507)"/>
<path d="M0 0 C0.89 0.12 1.77 0.25 2.69 0.38 C-0.28 2.76 -3.26 5.11 -6.31 7.38 C-6.97 7.05 -7.63 6.71 -8.31 6.38 C-4.13 0.47 -4.13 0.47 0 0 Z " fill="#3C7FEA" transform="translate(205.3125,318.625)"/>
<path d="M0 0 C0.99 0 1.98 0 3 0 C3.66 1.98 4.32 3.96 5 6 C3.02 6 1.04 6 -1 6 C-1.04 4.33 -1.04 2.67 -1 1 C-0.67 0.67 -0.34 0.34 0 0 Z " fill="#82C8F9" transform="translate(341,181)"/>
<path d="M0 0 C1.28 0.1 2.56 0.21 3.88 0.31 C4.95 0.4 4.95 0.4 6.05 0.49 C8 1 8 1 10 4 C9.67 4.99 9.34 5.98 9 7 C7.5 6.03 6 5.04 4.5 4.06 C3.66 3.52 2.83 2.97 1.97 2.41 C1.32 1.94 0.67 1.48 0 1 C0 0.67 0 0.34 0 0 Z " fill="#446DBB" transform="translate(48,484)"/>
<path d="M0 0 C0.55 2.08 1 3.84 1 6 C0.34 6 -0.32 6 -1 6 C-1.66 7.98 -2.32 9.96 -3 12 C-3.66 11.67 -4.32 11.34 -5 11 C-4.01 8.03 -3.02 5.06 -2 2 C-1.34 2 -0.68 2 0 2 C0 1.34 0 0.68 0 0 Z " fill="#3365C4" transform="translate(498,432)"/>
<path d="M0 0 C1.64 3.21 3.14 6.47 4.62 9.75 C5.07 10.73 5.52 11.72 5.98 12.73 C6.31 13.48 6.65 14.23 7 15 C3.65 13.59 3.08 13.14 1.25 9.75 C0.06 6.19 -0.27 3.7 0 0 Z " fill="#476DBD" transform="translate(13,432)"/>
<path d="M0 0 C5.28 0 10.56 0 16 0 C16 0.66 16 1.32 16 2 C10.31 3.5 5.58 2.33 0 1 C0 0.67 0 0.34 0 0 Z " fill="#376FEC" transform="translate(187,432)"/>
<path d="M0 0 C0.33 0 0.66 0 1 0 C1.08 2.29 1.14 4.58 1.19 6.88 C1.22 8.15 1.26 9.43 1.29 10.74 C1.2 11.82 1.1 12.89 1 14 C-0.49 14.99 -0.49 14.99 -2 16 C-1.34 10.72 -0.68 5.44 0 0 Z " fill="#D1EAF9" transform="translate(508,402)"/>
<path d="M0 0 C0.99 0.5 0.99 0.5 2 1 C3.16 4.47 3.07 7.36 3 11 C2.01 11.5 2.01 11.5 1 12 C0.02 7.95 -0.08 4.16 0 0 Z " fill="#CDF2FD" transform="translate(508,116)"/>
<path d="M0 0 C-0.66 1.32 -1.32 2.64 -2 4 C-4.97 3.5 -4.97 3.5 -8 3 C-8 2.34 -8 1.68 -8 1 C-5.29 -0.35 -2.99 -0.07 0 0 Z " fill="#2260E8" transform="translate(312,505)"/>
<path d="M0 0 C-0.66 0.66 -1.32 1.32 -2 2 C-3.32 2 -4.64 2 -6 2 C-6 2.66 -6 3.32 -6 4 C-7.98 4 -9.96 4 -12 4 C-10 1 -10 1 -7.69 0.31 C-5.09 0.01 -2.61 -0.07 0 0 Z " fill="#2751C0" transform="translate(427,501)"/>
<path d="M0 0 C0.99 0.5 0.99 0.5 2 1 C2 1.66 2 2.32 2 3 C2.66 3 3.32 3 4 3 C6.11 6.47 6.11 6.47 5.56 9.14 C5.28 10.06 5.28 10.06 5 11 C4.16 9.73 3.33 8.46 2.5 7.19 C1.8 6.13 1.8 6.13 1.09 5.04 C0 3 0 3 0 0 Z " fill="#5172BE" transform="translate(19,448)"/>
<path d="M0 0 C0.66 0 1.32 0 2 0 C1.34 3.63 0.68 7.26 0 11 C-2.1 6.8 -2.22 6.21 -1 2 C-0.67 1.34 -0.34 0.68 0 0 Z " fill="#E6F7FD" transform="translate(6,93)"/>
<path d="M0 0 C1.67 0.06 1.67 0.06 3.38 0.12 C3.7 1.12 4.03 2.11 4.38 3.12 C1.08 2.8 -2.22 2.46 -5.62 2.12 C-3.62 0.12 -3.62 0.12 0 0 Z " fill="#1F59DF" transform="translate(107.625,503.875)"/>
<path d="M0 0 C1.49 0.76 2.96 1.53 4.44 2.31 C5.26 2.74 6.08 3.17 6.93 3.61 C9 5 9 5 10 8 C9.4 7.69 8.8 7.38 8.19 7.06 C5.91 5.9 5.91 5.9 3 5 C3 4.34 3 3.68 3 3 C2.01 3 1.02 3 0 3 C0 2.01 0 1.02 0 0 Z " fill="#D9EDFA" transform="translate(51,487)"/>
<path d="M0 0 C0.66 0 1.32 0 2 0 C1.46 3.79 -0.12 5.55 -3 8 C-3.66 8 -4.32 8 -5 8 C-4.49 5.83 -4 4 -3 2 C-2.01 2 -1.02 2 0 2 C0 1.34 0 0.68 0 0 Z " fill="#3373E5" transform="translate(471,464)"/>
<path d="M0 0 C0.99 0.33 1.98 0.66 3 1 C3 1.66 3 2.32 3 3 C5.64 3 8.28 3 11 3 C11 3.33 11 3.66 11 4 C9.4 4.25 7.79 4.47 6.19 4.69 C5.29 4.82 4.4 4.94 3.48 5.07 C1 5 1 5 -0.82 3.52 C-1.21 3.02 -1.6 2.52 -2 2 C-1.34 2 -0.68 2 0 2 C0 1.34 0 0.68 0 0 Z " fill="#3A70E9" transform="translate(159,426)"/>
<path d="M0 0 C7.43 -0.14 7.43 -0.14 11 1 C10.67 1.99 10.34 2.98 10 4 C6.7 3.34 3.4 2.68 0 2 C0 1.34 0 0.68 0 0 Z " fill="#2F64E0" transform="translate(123,420)"/>
<path d="M0 0 C1.35 1.31 2.69 2.65 4 4 C4 4.33 4 4.66 4 5 C0.28 5.2 -0.77 5.15 -4 3 C-3 1 -3 1 0 0 Z " fill="#5694ED" transform="translate(190,233)"/>
<path d="M0 0 C2.96 3.36 3.92 6.69 5 11 C3.05 10.29 3.05 10.29 1 9 C0.39 6.84 0.39 6.84 0.25 4.38 C0.19 3.56 0.14 2.74 0.08 1.9 C0.05 1.27 0.03 0.65 0 0 Z " fill="#A3CEEA" transform="translate(495,68)"/>
<path d="M0 0 C3.49 2.21 4.73 4.09 6 8 C4.35 7.67 2.7 7.34 1 7 C0.67 4.69 0.34 2.38 0 0 Z " fill="#8FCFEE" transform="translate(480,48)"/>
<path d="M0 0 C0.66 0.33 1.32 0.66 2 1 C1.38 2.46 0.75 3.92 0.12 5.38 C-0.22 6.19 -0.57 7 -0.93 7.84 C-2 10 -2 10 -4 12 C-3.67 9.36 -3.34 6.72 -3 4 C-2.01 3.67 -1.02 3.34 0 3 C0 2.01 0 1.02 0 0 Z " fill="#E7F7FE" transform="translate(15,68)"/>
<path d="M0 0 C2.31 0 4.62 0 7 0 C7 0.99 7 1.98 7 3 C5.02 3.33 3.04 3.66 1 4 C0.67 2.68 0.34 1.36 0 0 Z " fill="#2D68E0" transform="translate(385,501)"/>
<path d="M0 0 C2.64 0 5.28 0 8 0 C8 0.66 8 1.32 8 2 C9.32 2.33 10.64 2.66 12 3 C8.52 4.16 7.66 3.77 4.31 2.56 C3.5 2.28 2.7 1.99 1.86 1.69 C1.25 1.46 0.63 1.24 0 1 C0 0.67 0 0.34 0 0 Z " fill="#4065B1" transform="translate(76,500)"/>
<path d="M0 0 C5.75 1.88 5.75 1.88 8 3 C8 3.66 8 4.32 8 5 C5.24 4.48 2.67 3.89 0 3 C0 2.01 0 1.02 0 0 Z " fill="#DEEFFB" transform="translate(70,498)"/>
<path d="M0 0 C2.31 1.98 4.62 3.96 7 6 C6.01 6.33 5.02 6.66 4 7 C2.35 5.35 0.7 3.7 -1 2 C-0.67 1.34 -0.34 0.68 0 0 Z " fill="#E2F5FC" transform="translate(31,469)"/>
<path d="M0 0 C2 1 4 2 6 3 C6 4.32 6 5.64 6 7 C5.01 6.67 4.02 6.34 3 6 C3 5.34 3 4.68 3 4 C2.34 4 1.68 4 1 4 C0.67 2.68 0.34 1.36 0 0 Z " fill="#F3FCF3" transform="translate(24,465)"/>
<path d="M0 0 C2.46 3.69 3.01 6.7 4 11 C2 10 2 10 0 8 C-0.37 5.25 -0.18 2.8 0 0 Z " fill="#D1E7F9" transform="translate(8,424)"/>
<path d="M0 0 C0.99 0.33 1.98 0.66 3 1 C2.67 2.98 2.34 4.96 2 7 C1.01 7 0.02 7 -1 7 C-1.04 5 -1.04 3 -1 1 C-0.67 0.67 -0.34 0.34 0 0 Z " fill="#3B72E9" transform="translate(101,408)"/>
<path d="M0 0 C0.66 0 1.32 0 2 0 C2.33 2.64 2.66 5.28 3 8 C1.68 7.67 0.36 7.34 -1 7 C-0.67 4.69 -0.34 2.38 0 0 Z " fill="#2B67DF" transform="translate(402,368)"/>
<path d="M0 0 C7.1 1.74 7.1 1.74 10 5 C8.52 4.75 7.04 4.47 5.56 4.19 C4.74 4.04 3.92 3.89 3.07 3.73 C2.38 3.49 1.7 3.25 1 3 C0.67 2.01 0.34 1.02 0 0 Z " fill="#3174E2" transform="translate(362,339)"/>
<path d="M0 0 C1.65 0.33 3.3 0.66 5 1 C3 3 3 3 0.18 3.2 C-0.91 3.17 -2 3.15 -3.12 3.12 C-4.22 3.11 -5.32 3.09 -6.45 3.07 C-7.29 3.05 -8.13 3.02 -9 3 C-9 2.67 -9 2.34 -9 2 C-4.55 1.5 -4.55 1.5 0 1 C0 0.67 0 0.34 0 0 Z " fill="#C6D4F9" transform="translate(101,508)"/>
<path d="M0 0 C-0.69 1.94 -0.69 1.94 -2 4 C-4.62 4.75 -4.62 4.75 -7 5 C-7.33 4.34 -7.66 3.68 -8 3 C-2.25 0 -2.25 0 0 0 Z " fill="#D3E8F9" transform="translate(444,497)"/>
<path d="M0 0 C1.98 0 3.96 0 6 0 C6.33 0.66 6.66 1.32 7 2 C4.36 2.66 1.72 3.32 -1 4 C-0.67 2.68 -0.34 1.36 0 0 Z " fill="#2A66D8" transform="translate(425,494)"/>
<path d="M0 0 C0.66 0.33 1.32 0.66 2 1 C1.67 2.98 1.34 4.96 1 7 C0.34 7 -0.32 7 -1 7 C-1 7.66 -1 8.32 -1 9 C-1.66 9 -2.32 9 -3 9 C-2.01 6.03 -1.02 3.06 0 0 Z " fill="#D5E9F9" transform="translate(500,434)"/>
<path d="M0 0 C1.32 0.66 2.64 1.32 4 2 C0.7 2 -2.6 2 -6 2 C-6 1.34 -6 0.68 -6 0 C-3.45 -1.28 -2.67 -0.86 0 0 Z " fill="#356AEC" transform="translate(179,430)"/>
<path d="M0 0 C2 1 2 1 3.19 3.81 C3.96 6.86 4.1 8.14 3 11 C0.43 7.15 0.45 4.57 0 0 Z " fill="#83C0FE" transform="translate(177,219)"/>
<path d="M0 0 C0.66 0 1.32 0 2 0 C2.22 3.86 1.6 6.49 0 10 C-0.33 10 -0.66 10 -1 10 C-1.03 8.52 -1.05 7.04 -1.06 5.56 C-1.07 4.74 -1.09 3.92 -1.1 3.07 C-1 1 -1 1 0 0 Z " fill="#E8FBFE" transform="translate(9,80)"/>
<path d="M0 0 C4.84 2.38 4.84 2.38 7 4 C7.94 6.75 7.94 6.75 8 9 C6 7.62 6 7.62 4 6 C4 5.34 4 4.68 4 4 C2.68 3.34 1.36 2.68 0 2 C0 1.34 0 0.68 0 0 Z " fill="#D4F1F8" transform="translate(476,40)"/>
<path d="M0 0 C2.39 0.58 4.67 1.22 7 2 C6.34 3.32 5.68 4.64 5 6 C3.35 4.02 1.7 2.04 0 0 Z " fill="#4F73BC" transform="translate(36,473)"/>
<path d="M0 0 C0.66 0 1.32 0 2 0 C1.25 2.44 1.25 2.44 0 5 C-2.12 5.81 -2.12 5.81 -4 6 C-3.67 4.68 -3.34 3.36 -3 2 C-2.01 2 -1.02 2 0 2 C0 1.34 0 0.68 0 0 Z " fill="#5190F3" transform="translate(121,358)"/>
<path d="M0 0 C2.5 1.81 2.5 1.81 5 4 C5 4.99 5 5.98 5 7 C2.53 5.85 0.95 4.95 -1 3 C-0.67 2.01 -0.34 1.02 0 0 Z " fill="#62ACEA" transform="translate(313,104)"/>
<path d="M0 0 C1.98 0.99 3.96 1.98 6 3 C6 3.66 6 4.32 6 5 C4.02 5 2.04 5 0 5 C0 3.35 0 1.7 0 0 Z " fill="#65AFEB" transform="translate(304,99)"/>
<path d="M0 0 C3.38 -0.19 3.38 -0.19 7 0 C7.66 0.99 8.32 1.98 9 3 C3.46 3.37 3.46 3.37 1.12 1.5 C0.75 1 0.38 0.51 0 0 Z " fill="#2253BA" transform="translate(84,501)"/>
<path d="M0 0 C0.33 0.99 0.66 1.98 1 3 C-1.64 3 -4.28 3 -7 3 C-4.5 -0 -4.26 0 0 0 Z " fill="#4C94E6" transform="translate(346,187)"/>
<path d="M0 0 C0.12 0.64 0.25 1.28 0.38 1.94 C0.58 2.62 0.79 3.3 1 4 C1.66 4.33 2.32 4.66 3 5 C1.02 5.99 1.02 5.99 -1 7 C-1.04 5 -1.04 3 -1 1 C-0.67 0.67 -0.34 0.34 0 0 Z " fill="#9ACDF8" transform="translate(177,180)"/>
<path d="M0 0 C2.31 0.33 4.62 0.66 7 1 C7 2.32 7 3.64 7 5 C4.12 3.71 2.13 2.34 0 0 Z " fill="#E6F9FC" transform="translate(459,25)"/>
<path d="M0 0 C1.46 -0.08 2.92 -0.14 4.38 -0.19 C5.19 -0.22 6 -0.26 6.84 -0.29 C7.55 -0.2 8.26 -0.1 9 0 C9.66 0.99 10.32 1.98 11 3 C9.54 2.89 8.08 2.76 6.62 2.62 C5.41 2.52 5.41 2.52 4.16 2.41 C2 2 2 2 0 0 Z " fill="#E6F9FD" transform="translate(416,6)"/>
</svg>
